<?xml version="1.0" encoding="UTF-8"?>
<svg version="1.1" xmlns="http://www.w3.org/2000/svg" width="656" height="292">
<path d="M0 0 C216.48 0 432.96 0 656 0 C656 96.36 656 192.72 656 292 C439.52 292 223.04 292 0 292 C0 195.64 0 99.28 0 0 Z " fill="#9F86F6" transform="translate(0,0)"/>
<path d="M0 0 C1.1294957 0.00142502 2.25899139 0.00285004 3.42271423 0.00431824 C4.7006636 0.00124161 5.97861298 -0.00183502 7.29528809 -0.00500488 C8.69575683 0.00189234 10.09622379 0.00915927 11.49668884 0.01676941 C12.92633014 0.0179611 14.35597224 0.01841439 15.78561401 0.01815796 C18.78253578 0.01972307 21.77933813 0.02801556 24.77622986 0.04142761 C28.62563061 0.05843287 32.47490023 0.06224154 36.32433414 0.06148243 C39.27619691 0.06175379 42.22803078 0.06722917 45.17988396 0.07448387 C46.59971841 0.0776749 48.01955615 0.07963895 49.439394 0.08037758 C51.41952307 0.08253567 53.39964003 0.09206485 55.37974548 0.10197449 C57.07279564 0.10769218 57.07279564 0.10769218 58.80004883 0.11352539 C61.33653259 0.24723816 61.33653259 0.24723816 62.33653259 1.24723816 C62.43609537 3.41986496 62.46452978 5.59576922 62.46592712 7.77067566 C62.46767944 8.45196533 62.46943176 9.133255 62.47123718 9.83518982 C62.47565501 12.09756483 62.47271797 14.35986229 62.46934509 16.62223816 C62.47001815 18.18783076 62.47098819 19.75342326 62.47224426 21.3190155 C62.47372114 24.60434461 62.471567 27.88964658 62.46690369 31.17497253 C62.4612064 35.39544332 62.46448546 39.61585052 62.47047615 43.83631897 C62.47408204 47.07040388 62.47294305 50.3044736 62.47034836 53.53855896 C62.46967916 55.09515897 62.47050725 56.65176034 62.47282791 58.20835876 C62.47535489 60.38021012 62.47151324 62.55195712 62.46592712 64.72380066 C62.46473373 66.58125916 62.46473373 66.58125916 62.46351624 68.47624207 C62.33653259 71.24723816 62.33653259 71.24723816 61.33653259 72.24723816 C59.99385846 72.3335569 58.64678937 72.35430289 57.30137634 72.34489441 C56.49248962 72.34167175 55.68360291 72.3384491 54.85020447 72.33512878 C54.00006775 72.32674988 53.14993103 72.31837097 52.27403259 72.30973816 C51.42002869 72.30522644 50.56602478 72.30071472 49.68614197 72.29606628 C47.56957596 72.28424189 45.45304574 72.26630585 43.33653259 72.24723816 C41.83046745 69.23510786 42.21492928 66.13441194 42.23887634 62.83317566 C42.24029129 62.10353607 42.24170624 61.37389648 42.24316406 60.62214661 C42.24876729 58.28880231 42.26132025 55.95555352 42.27403259 53.62223816 C42.27904718 52.04151038 42.28361016 50.46078109 42.28770447 48.88005066 C42.29873775 45.00240962 42.31600448 41.12484009 42.33653259 37.24723816 C41.40067322 38.0193866 40.46481384 38.79153503 39.50059509 39.58708191 C38.97417419 40.02141541 38.4477533 40.4557489 37.90538025 40.90324402 C34.83554915 43.53309465 32.06158235 46.45421499 29.33653259 49.43473816 C27.33653259 51.24723816 27.33653259 51.24723816 25.03184509 52.07536316 C21.76383325 53.49623787 19.787579 55.35288196 17.21153259 57.80973816 C13.31131757 61.44535243 9.37901932 64.96849752 5.27403259 68.37223816 C4.37555603 69.11731628 3.47707947 69.86239441 2.55137634 70.63005066 C0.33653259 72.24723816 0.33653259 72.24723816 -1.66346741 72.24723816 C-2.01924866 73.10575378 -2.01924866 73.10575378 -2.38221741 73.98161316 C-3.93939978 76.73516736 -5.78839538 78.4151945 -8.16346741 80.49723816 C-8.95752991 81.20364441 -9.75159241 81.91005066 -10.56971741 82.63786316 C-12.66346741 84.24723816 -12.66346741 84.24723816 -14.66346741 84.24723816 C-14.96317444 85.04774597 -14.96317444 85.04774597 -15.26893616 85.86442566 C-17.28325383 89.30625698 -20.04670146 91.6998113 -22.97596741 94.37223816 C-23.5450885 94.90977722 -24.11420959 95.44731628 -24.70057678 96.00114441 C-27.93250563 98.97704216 -30.56493871 100.60782668 -34.66346741 102.24723816 C-35.77961444 104.1460886 -35.77961444 104.1460886 -36.66346741 106.24723816 C-40.5847381 110.35028962 -44.36371754 113.22086321 -49.66346741 115.24723816 C-50.71367844 117.09695512 -50.71367844 117.09695512 -51.66346741 119.24723816 C-54.03846741 121.99723816 -54.03846741 121.99723816 -56.66346741 124.24723816 C-57.98346741 124.24723816 -59.30346741 124.24723816 -60.66346741 124.24723816 C-60.97090881 125.0400116 -60.97090881 125.0400116 -61.28456116 125.84880066 C-63.26062113 129.28591348 -65.92166678 131.84340946 -68.72596741 134.62223816 C-69.30652893 135.20151062 -69.88709045 135.78078308 -70.48524475 136.37760925 C-74.32758379 140.13505817 -78.21778022 143.34922726 -82.85877991 146.09880066 C-84.7312377 147.19768967 -84.7312377 147.19768967 -86.26502991 148.85661316 C-87.66346741 150.24723816 -87.66346741 150.24723816 -89.91346741 150.87223816 C-94.27283999 149.88147166 -96.95125392 146.70198848 -99.66346741 143.24723816 C-99.66346741 142.58723816 -99.66346741 141.92723816 -99.66346741 141.24723816 C-100.32346741 141.24723816 -100.98346741 141.24723816 -101.66346741 141.24723816 C-101.66346741 140.58723816 -101.66346741 139.92723816 -101.66346741 139.24723816 C-102.22034241 139.20598816 -102.77721741 139.16473816 -103.35096741 139.12223816 C-106.21439108 138.03878055 -107.33136903 136.31701348 -109.15956116 133.93864441 C-111.46507871 131.34568571 -114.24177003 129.50208368 -117.08924866 127.54411316 C-117.60874084 127.11614441 -118.12823303 126.68817566 -118.66346741 126.24723816 C-118.66346741 125.58723816 -118.66346741 124.92723816 -118.66346741 124.24723816 C-119.23194397 123.99587097 -119.80042053 123.74450378 -120.38612366 123.48551941 C-122.97711873 122.07669362 -124.91680438 120.41449078 -127.10096741 118.43473816 C-128.21278381 117.43507019 -128.21278381 117.43507019 -129.34706116 116.41520691 C-131.84310586 114.07911111 -134.25353443 111.671956 -136.66346741 109.24723816 C-137.54647522 108.38743347 -138.42948303 107.52762878 -139.33924866 106.64176941 C-140.20936584 105.7896991 -141.07948303 104.93762878 -141.97596741 104.05973816 C-142.85897522 103.19993347 -143.74198303 102.34012878 -144.65174866 101.45426941 C-146.66346741 99.24723816 -146.66346741 99.24723816 -146.66346741 97.24723816 C-147.22034241 97.16473816 -147.77721741 97.08223816 -148.35096741 96.99723816 C-150.66346741 96.24723816 -150.66346741 96.24723816 -153.16346741 94.12223816 C-155.41799928 92.0251179 -155.41799928 92.0251179 -157.72596741 92.30973816 C-159.93534952 93.37879402 -161.71961146 94.7569486 -163.66346741 96.24723816 C-164.32346741 96.24723816 -164.98346741 96.24723816 -165.66346741 96.24723816 C-165.75627991 97.14442566 -165.75627991 97.14442566 -165.85096741 98.05973816 C-167.01086391 101.18253643 -168.75740177 101.66785466 -171.66346741 103.24723816 C-173.50031052 104.55870464 -175.30859046 105.90288498 -177.11268616 107.25895691 C-178.66346741 108.24723816 -178.66346741 108.24723816 -180.66346741 108.24723816 C-180.73694397 109.00778503 -180.81042053 109.76833191 -180.88612366 110.55192566 C-181.87842766 113.99257774 -183.0596165 114.59122307 -186.10096741 116.37223816 C-189.24728549 118.24083798 -190.58453775 119.12884367 -192.66346741 122.24723816 C-194.38041888 123.25149279 -196.10045801 124.25191121 -197.85096741 125.19645691 C-199.91013594 126.330186 -199.91013594 126.330186 -202.47596741 128.49723816 C-204.66346741 130.24723816 -204.66346741 130.24723816 -206.66346741 130.24723816 C-206.72534241 130.84536316 -206.78721741 131.44348816 -206.85096741 132.05973816 C-207.66346741 134.24723816 -207.66346741 134.24723816 -209.83143616 135.49723816 C-213.38700084 137.69433192 -215.92556862 140.42007125 -218.78846741 143.43473816 C-223.6336365 148.42404272 -228.59797941 152.64110958 -234.34706116 156.59098816 C-236.35992483 158.03020266 -238.0252734 159.46225319 -239.72596741 161.24723816 C-240.36534241 161.90723816 -241.00471741 162.56723816 -241.66346741 163.24723816 C-242.32346741 163.24723816 -242.98346741 163.24723816 -243.66346741 163.24723816 C-243.66346741 163.90723816 -243.66346741 164.56723816 -243.66346741 165.24723816 C-245.07772607 166.2237501 -246.49797595 167.1928377 -247.94862366 168.11442566 C-251.75366398 170.62800583 -255.07195381 173.65572456 -258.28846741 176.87223816 C-260.34761622 178.93138698 -262.18411759 180.72763666 -264.66346741 182.24723816 C-265.98346741 182.24723816 -267.30346741 182.24723816 -268.66346741 182.24723816 C-268.99346741 183.23723816 -269.32346741 184.22723816 -269.66346741 185.24723816 C-270.48846741 185.55661316 -271.31346741 185.86598816 -272.16346741 186.18473816 C-272.98846741 186.53536316 -273.81346741 186.88598816 -274.66346741 187.24723816 C-275.55040044 189.28829455 -275.55040044 189.28829455 -275.66346741 191.24723816 C-276.65346741 191.24723816 -277.64346741 191.24723816 -278.66346741 191.24723816 C-278.70471741 191.84536316 -278.74596741 192.44348816 -278.78846741 193.05973816 C-279.66346741 195.24723816 -279.66346741 195.24723816 -282.22596741 196.43473816 C-286.49607056 198.6862471 -288.69758909 201.61614265 -291.63612366 205.38395691 C-293.66346741 207.24723816 -293.66346741 207.24723816 -296.32362366 207.59880066 C-299.21802581 207.16391553 -299.66709006 206.32039925 -301.66346741 204.24723816 C-303.95366392 203.10471316 -306.28020113 202.19155121 -308.66346741 201.24723816 C-308.66346741 200.25723816 -308.66346741 199.26723816 -308.66346741 198.24723816 C-309.27835022 198.06548035 -309.89323303 197.88372253 -310.52674866 197.69645691 C-311.33499084 197.44508972 -312.14323303 197.19372253 -312.97596741 196.93473816 C-313.77647522 196.69110535 -314.57698303 196.44747253 -315.40174866 196.19645691 C-319.05403329 194.66363279 -320.48538982 192.51435454 -322.66346741 189.24723816 C-324.63099569 188.18477289 -326.62934319 187.17586008 -328.66346741 186.24723816 C-328.66346741 185.25723816 -328.66346741 184.26723816 -328.66346741 183.24723816 C-329.32346741 183.24723816 -329.98346741 183.24723816 -330.66346741 183.24723816 C-330.66346741 182.58723816 -330.66346741 181.92723816 -330.66346741 181.24723816 C-331.39694397 180.98555847 -332.13042053 180.72387878 -332.88612366 180.45426941 C-335.70162615 179.2306544 -337.71578016 177.85224164 -340.10096741 175.93473816 C-340.87827209 175.31212097 -341.65557678 174.68950378 -342.45643616 174.04801941 C-343.18475647 173.4537616 -343.91307678 172.85950378 -344.66346741 172.24723816 C-345.23710022 171.78704285 -345.81073303 171.32684753 -346.40174866 170.85270691 C-348.71879505 168.96673891 -350.85762116 167.04229809 -352.91346741 164.87223816 C-356.15042401 161.78241595 -359.65064073 159.38655334 -363.35877991 156.89567566 C-365.36221292 155.46271171 -366.95606267 154.00427675 -368.66346741 152.24723816 C-371.22152183 150.63162484 -373.83126369 149.154018 -376.47596741 147.68473816 C-377.19784241 147.21036316 -377.91971741 146.73598816 -378.66346741 146.24723816 C-378.66346741 145.58723816 -378.66346741 144.92723816 -378.66346741 144.24723816 C-379.43690491 143.90692566 -379.43690491 143.90692566 -380.22596741 143.55973816 C-383.03869481 142.04519264 -385.40016029 140.17558822 -387.88221741 138.17301941 C-389.6029374 137.09569806 -389.6029374 137.09569806 -391.51502991 137.29801941 C-394.64443606 138.68064794 -397.00744806 140.87173481 -399.53846741 143.12223816 C-403.34500768 146.50042096 -407.03265582 149.07508769 -411.66346741 151.24723816 C-412.68366314 152.22662606 -413.68496546 153.22619265 -414.66346741 154.24723816 C-416.32626068 155.25366566 -417.99330225 156.25309223 -419.66346741 157.24723816 C-420.55034241 157.96911316 -421.43721741 158.69098816 -422.35096741 159.43473816 C-424.66346741 161.24723816 -424.66346741 161.24723816 -426.66346741 161.24723816 C-426.66346741 161.90723816 -426.66346741 162.56723816 -426.66346741 163.24723816 C-428.34315491 164.75505066 -428.34315491 164.75505066 -430.53846741 166.37223816 C-431.25776428 166.91106628 -431.97706116 167.44989441 -432.71815491 168.00505066 C-434.66346741 169.24723816 -434.66346741 169.24723816 -436.66346741 169.24723816 C-436.99346741 170.23723816 -437.32346741 171.22723816 -437.66346741 172.24723816 C-439.22987366 173.82536316 -439.22987366 173.82536316 -441.22596741 175.49723816 C-444.15314313 177.96802627 -447.01883794 180.48066969 -449.85096741 183.05973816 C-452.63419638 185.50810132 -455.03240046 187.22600058 -458.66346741 188.24723816 C-458.66346741 188.90723816 -458.66346741 189.56723816 -458.66346741 190.24723816 C-460.74549866 191.93864441 -460.74549866 191.93864441 -463.47596741 193.80973816 C-464.36928772 194.42977722 -465.26260803 195.04981628 -466.18299866 195.68864441 C-468.66346741 197.24723816 -468.66346741 197.24723816 -471.66346741 198.24723816 C-471.99346741 199.23723816 -472.32346741 200.22723816 -472.66346741 201.24723816 C-473.65346741 201.24723816 -474.64346741 201.24723816 -475.66346741 201.24723816 C-475.66346741 201.90723816 -475.66346741 202.56723816 -475.66346741 203.24723816 C-477.98370075 205.30230198 -480.24671476 207.02196646 -482.97596741 208.49723816 C-486.41336438 210.73554316 -488.99293016 213.5271733 -491.79627991 216.50505066 C-493.66346741 218.24723816 -493.66346741 218.24723816 -496.66346741 219.24723816 C-497.11721741 219.86598816 -497.57096741 220.48473816 -498.03846741 221.12223816 C-499.66346741 223.24723816 -499.66346741 223.24723816 -501.97596741 224.62223816 C-504.44574056 226.11558937 -505.58173512 227.24113688 -507.41346741 229.37223816 C-510.42716075 232.43241521 -513.1155991 233.56359704 -517.40565491 233.82536316 C-521.41503456 232.79874 -523.1810344 229.72186361 -525.44862366 226.44645691 C-526.66346741 224.24723816 -526.66346741 224.24723816 -526.66346741 222.24723816 C-527.32346741 222.24723816 -527.98346741 222.24723816 -528.66346741 222.24723816 C-529.78846741 217.49723816 -529.78846741 217.49723816 -528.66346741 215.24723816 C-527.76627991 214.81411316 -527.76627991 214.81411316 -526.85096741 214.37223816 C-524.51193474 213.32334461 -524.51193474 213.32334461 -522.66346741 211.12223816 C-520.66346741 209.24723816 -520.66346741 209.24723816 -516.66346741 209.24723816 C-516.66346741 208.58723816 -516.66346741 207.92723816 -516.66346741 207.24723816 C-514.69613872 205.60679793 -512.72436713 204.07437531 -510.66346741 202.55973816 C-506.04943767 199.10798302 -501.63773205 195.58654291 -497.44471741 191.62223816 C-495.66346741 190.24723816 -495.66346741 190.24723816 -493.39393616 189.48161316 C-489.32883629 187.64388561 -486.62163239 184.60851118 -483.47596741 181.49723816 C-478.45462279 176.64708974 -473.6597199 172.51591108 -467.42127991 169.26286316 C-465.49209497 168.36342856 -465.49209497 168.36342856 -464.66346741 166.24723816 C-463.98284241 165.99973816 -463.30221741 165.75223816 -462.60096741 165.49723816 C-458.43244483 163.72339876 -455.20538608 161.04025895 -451.66346741 158.24723816 C-450.80624084 157.58852722 -449.94901428 156.92981628 -449.06581116 156.25114441 C-448.19053772 155.56923035 -447.31526428 154.88731628 -446.41346741 154.18473816 C-445.60393616 153.5543866 -444.79440491 152.92403503 -443.96034241 152.27458191 C-441.58360903 150.29418056 -441.58360903 150.29418056 -439.67127991 147.75505066 C-434.8503204 141.73354092 -428.02688816 137.48951866 -421.66346741 133.24723816 C-420.59647648 132.34868341 -419.541404 131.43587579 -418.49549866 130.51286316 C-414.64909823 127.18600142 -410.62654897 124.14386366 -406.53846741 121.12223816 C-405.16029932 120.09956016 -403.78268226 119.07613912 -402.40565491 118.05192566 C-401.75564514 117.57465027 -401.10563538 117.09737488 -400.43592834 116.6056366 C-398.47574652 115.14710976 -398.47574652 115.14710976 -396.10877991 112.88005066 C-392.66733032 110.58208592 -390.72946826 110.58930922 -386.66346741 111.24723816 C-384.05635508 112.73599315 -381.93101879 114.59693264 -379.72596741 116.62223816 C-379.13751038 117.13012878 -378.54905334 117.63801941 -377.94276428 118.16130066 C-376.4641612 119.46645553 -375.05699738 120.85161265 -373.66346741 122.24723816 C-373.66346741 122.90723816 -373.66346741 123.56723816 -373.66346741 124.24723816 C-372.75596741 124.51536316 -371.84846741 124.78348816 -370.91346741 125.05973816 C-367.87741978 126.16906325 -366.1395875 127.25036712 -363.66346741 129.24723816 C-362.93643616 129.67391785 -362.20940491 130.10059753 -361.46034241 130.54020691 C-358.15738707 132.5561168 -355.06184225 134.79472667 -351.97596741 137.12223816 C-351.39524475 137.5437616 -350.81452209 137.96528503 -350.21620178 138.39958191 C-346.67976667 141.07337216 -345.09704067 143.10036527 -343.66346741 147.24723816 C-341.69427894 148.62567008 -339.6968195 149.96534228 -337.66346741 151.24723816 C-337.66346741 151.90723816 -337.66346741 152.56723816 -337.66346741 153.24723816 C-337.00346741 153.43286316 -336.34346741 153.61848816 -335.66346741 153.80973816 C-332.10339482 155.51560627 -329.67355523 157.75167167 -326.76502991 160.38786316 C-324.20209682 162.65543965 -321.50730585 164.67435958 -318.74940491 166.69645691 C-315.65406515 168.99767392 -312.6529616 171.41672335 -309.64393616 173.82926941 C-307.62006148 175.42568167 -307.62006148 175.42568167 -304.66346741 176.24723816 C-304.66346741 177.23723816 -304.66346741 178.22723816 -304.66346741 179.24723816 C-304.00346741 179.24723816 -303.34346741 179.24723816 -302.66346741 179.24723816 C-302.66346741 179.90723816 -302.66346741 180.56723816 -302.66346741 181.24723816 C-299.48844542 182.53292607 -297.04256042 182.92403763 -293.66346741 182.24723816 C-290.56623928 179.58207563 -288.08643734 176.6374596 -285.47596741 173.50895691 C-282.24756278 169.65070124 -278.51440374 166.64998688 -274.56971741 163.54411316 C-271.24306405 160.91498389 -268.01428743 158.18579585 -264.78846741 155.43473816 C-261.84237228 152.92350902 -258.89675213 150.42914854 -255.84315491 148.04801941 C-253.58689539 146.43134809 -253.58689539 146.43134809 -252.66346741 144.24723816 C-249.76295911 142.36582737 -246.77689746 140.74629707 -243.66346741 139.24723816 C-243.66346741 138.58723816 -243.66346741 137.92723816 -243.66346741 137.24723816 C-241.76502991 135.52067566 -241.76502991 135.52067566 -239.28846741 133.62223816 C-238.47635803 132.99059753 -237.66424866 132.35895691 -236.82752991 131.70817566 C-234.66346741 130.24723816 -234.66346741 130.24723816 -232.66346741 130.24723816 C-232.66346741 129.58723816 -232.66346741 128.92723816 -232.66346741 128.24723816 C-231.04607585 126.95391955 -229.36672852 125.73767281 -227.66346741 124.55973816 C-219.06117595 118.96755235 -219.06117595 118.96755235 -212.66346741 111.24723816 C-211.42596741 110.53567566 -211.42596741 110.53567566 -210.16346741 109.80973816 C-207.37191258 108.43404275 -207.37191258 108.43404275 -206.66346741 105.24723816 C-204.35096741 102.55973816 -204.35096741 102.55973816 -201.66346741 100.24723816 C-200.34346741 100.24723816 -199.02346741 100.24723816 -197.66346741 100.24723816 C-197.66346741 99.58723816 -197.66346741 98.92723816 -197.66346741 98.24723816 C-197.00346741 98.24723816 -196.34346741 98.24723816 -195.66346741 98.24723816 C-195.66346741 97.58723816 -195.66346741 96.92723816 -195.66346741 96.24723816 C-194.02377991 95.53567566 -194.02377991 95.53567566 -192.35096741 94.80973816 C-184.98642445 91.14052438 -179.01681194 85.295749 -172.85096741 79.93473816 C-169.95422605 77.42422898 -166.86470555 75.3586931 -163.66346741 73.24723816 C-162.63614582 72.3378489 -161.61534367 71.42104511 -160.60096741 70.49723816 C-157.66346741 68.24723816 -157.66346741 68.24723816 -155.22596741 67.49723816 C-151.05124394 68.71910844 -148.31116157 71.87467095 -145.66346741 75.24723816 C-145.66346741 75.90723816 -145.66346741 76.56723816 -145.66346741 77.24723816 C-144.85909241 77.34005066 -144.85909241 77.34005066 -144.03846741 77.43473816 C-138.34253776 79.38334567 -134.52596802 84.42262634 -130.71815491 88.85661316 C-128.20449041 91.78125702 -125.66914141 94.68287895 -123.10096741 97.55973816 C-122.65406555 98.07544373 -122.2071637 98.59114929 -121.74671936 99.1224823 C-118.68942324 102.52474994 -115.76962552 104.31985782 -111.66346741 106.24723816 C-109.82752991 107.82536316 -109.82752991 107.82536316 -108.28846741 109.49723816 C-105.81366798 112.09796765 -103.27727708 114.4879277 -100.53846741 116.80973816 C-97.16586203 119.70991632 -94.39792656 122.74371236 -91.66346741 126.24723816 C-89.29807689 126.1266722 -89.29807689 126.1266722 -86.66346741 125.24723816 C-85.30101945 123.60428621 -83.96481866 121.93899478 -82.66346741 120.24723816 C-81.67346741 120.24723816 -80.68346741 120.24723816 -79.66346741 120.24723816 C-79.47784241 119.38098816 -79.29221741 118.51473816 -79.10096741 117.62223816 C-77.2193105 113.20443499 -74.57428427 110.93965238 -70.66346741 108.24723816 C-68.99680074 107.58057149 -67.33013407 106.91390483 -65.66346741 106.24723816 C-61.69143719 103.38814394 -58.39233625 100.02427108 -55.22596741 96.30973816 C-50.55686044 90.86071355 -45.77188327 86.18187377 -39.28846741 82.99723816 C-34.12740442 80.31455137 -30.8525488 76.31592274 -27.08143616 71.96598816 C-23.39804697 67.82440677 -19.2847243 64.27434349 -14.90565491 60.88786316 C-11.66428967 58.3727418 -11.66428967 58.3727418 -9.78846741 54.80973816 C-8.28962969 51.39571892 -6.15755102 50.23234439 -3.15174866 48.12223816 C0.47076488 45.39255763 3.72870259 42.30503375 7.03526306 39.20573425 C9.33793866 37.05458068 11.63518782 35.0181442 14.13731384 33.09880066 C16.58819466 31.36234893 16.58819466 31.36234893 17.33653259 28.24723816 C18.16153259 27.77286316 18.98653259 27.29848816 19.83653259 26.80973816 C22.50046295 25.52202962 22.50046295 25.52202962 22.99278259 23.14958191 C23.10622009 22.52180847 23.21965759 21.89403503 23.33653259 21.24723816 C22.11752258 21.25509338 22.11752258 21.25509338 20.87388611 21.2631073 C17.21560937 21.2838081 13.55734492 21.29687619 9.89903259 21.30973816 C8.61963806 21.31811707 7.34024353 21.32649597 6.02207947 21.33512878 C4.19966736 21.33996277 4.19966736 21.33996277 2.34043884 21.34489441 C1.21452332 21.35013123 0.08860779 21.35536804 -1.07142639 21.36076355 C-3.66346741 21.24723816 -3.66346741 21.24723816 -4.66346741 20.24723816 C-4.79014505 17.25705655 -4.84867579 14.30029708 -4.85096741 11.30973816 C-4.8632135 10.47249207 -4.87545959 9.63524597 -4.88807678 8.77262878 C-4.89097717 7.57090027 -4.89097717 7.57090027 -4.89393616 6.34489441 C-4.89804504 5.60763123 -4.90215393 4.87036804 -4.90638733 4.11076355 C-4.48173803 0.85312728 -3.10715538 0.28842379 0 0 Z " fill="#E7DCF9" transform="translate(553.6634674072266,15.752761840820313)"/>
<path d="M0 0 C1.1294957 0.00142502 2.25899139 0.00285004 3.42271423 0.00431824 C4.7006636 0.00124161 5.97861298 -0.00183502 7.29528809 -0.00500488 C8.69575683 0.00189234 10.09622379 0.00915927 11.49668884 0.01676941 C12.92633014 0.0179611 14.35597224 0.01841439 15.78561401 0.01815796 C18.78253578 0.01972307 21.77933813 0.02801556 24.77622986 0.04142761 C28.62563061 0.05843287 32.47490023 0.06224154 36.32433414 0.06148243 C39.27619691 0.06175379 42.22803078 0.06722917 45.17988396 0.07448387 C46.59971841 0.0776749 48.01955615 0.07963895 49.439394 0.08037758 C51.41952307 0.08253567 53.39964003 0.09206485 55.37974548 0.10197449 C57.07279564 0.10769218 57.07279564 0.10769218 58.80004883 0.11352539 C61.33653259 0.24723816 61.33653259 0.24723816 62.33653259 1.24723816 C62.43609537 3.41986496 62.46452978 5.59576922 62.46592712 7.77067566 C62.4685556 8.79261017 62.4685556 8.79261017 62.47123718 9.83518982 C62.47565501 12.09756483 62.47271797 14.35986229 62.46934509 16.62223816 C62.47001815 18.18783076 62.47098819 19.75342326 62.47224426 21.3190155 C62.47372114 24.60434461 62.471567 27.88964658 62.46690369 31.17497253 C62.4612064 35.39544332 62.46448546 39.61585052 62.47047615 43.83631897 C62.47408204 47.07040388 62.47294305 50.3044736 62.47034836 53.53855896 C62.46967916 55.09515897 62.47050725 56.65176034 62.47282791 58.20835876 C62.47535489 60.38021012 62.47151324 62.55195712 62.46592712 64.72380066 C62.46513153 65.96210632 62.46433594 67.20041199 62.46351624 68.47624207 C62.33653259 71.24723816 62.33653259 71.24723816 61.33653259 72.24723816 C59.99385846 72.3335569 58.64678937 72.35430289 57.30137634 72.34489441 C56.49248962 72.34167175 55.68360291 72.3384491 54.85020447 72.33512878 C54.00006775 72.32674988 53.14993103 72.31837097 52.27403259 72.30973816 C51.42002869 72.30522644 50.56602478 72.30071472 49.68614197 72.29606628 C47.56957596 72.28424189 45.45304574 72.26630585 43.33653259 72.24723816 C41.83046745 69.23510786 42.21492928 66.13441194 42.23887634 62.83317566 C42.24029129 62.10353607 42.24170624 61.37389648 42.24316406 60.62214661 C42.24876729 58.28880231 42.26132025 55.95555352 42.27403259 53.62223816 C42.27904718 52.04151038 42.28361016 50.46078109 42.28770447 48.88005066 C42.29873775 45.00240962 42.31600448 41.12484009 42.33653259 37.24723816 C41.40067322 38.0193866 40.46481384 38.79153503 39.50059509 39.58708191 C38.71096375 40.23858215 38.71096375 40.23858215 37.90538025 40.90324402 C35.58456991 42.89142655 33.46813116 45.05954489 31.33653259 47.24723816 C30.00319926 48.58057149 28.66986593 49.91390483 27.33653259 51.24723816 C26.34653259 50.75223816 26.34653259 50.75223816 25.33653259 50.24723816 C26.39903259 49.18473816 27.46153259 48.12223816 28.52403259 47.05973816 C29.47922791 46.10067566 29.47922791 46.10067566 30.45372009 45.12223816 C32.00005244 43.58232213 33.57124143 42.06740527 35.14903259 40.55973816 C37.10803599 38.48879171 38.27060045 36.86361707 39.33653259 34.24723816 C40.98653259 34.24723816 42.63653259 34.24723816 44.33653259 34.24723816 C44.33653259 46.12723816 44.33653259 58.00723816 44.33653259 70.24723816 C49.61653259 70.24723816 54.89653259 70.24723816 60.33653259 70.24723816 C60.33653259 47.80723816 60.33653259 25.36723816 60.33653259 2.24723816 C39.54653259 2.24723816 18.75653259 2.24723816 -2.66346741 2.24723816 C-2.33346741 7.19723816 -2.00346741 12.14723816 -1.66346741 17.24723816 C8.56653259 17.57723816 18.79653259 17.90723816 29.33653259 18.24723816 C29.33653259 19.89723816 29.33653259 21.54723816 29.33653259 23.24723816 C26.89903259 24.99723816 26.89903259 24.99723816 25.22715759 25.96989441 C22.8905999 27.54851913 21.10541111 29.40446764 19.14903259 31.43473816 C14.99852724 35.69723016 10.56183438 39.39664833 5.91465759 43.10270691 C3.60321034 45.02541076 1.53245605 47.01026853 -0.53846741 49.18473816 C-3.02984287 51.77816996 -5.11575781 53.279681 -8.66346741 54.24723816 C-8.66346741 53.58723816 -8.66346741 52.92723816 -8.66346741 52.24723816 C-7.33534241 51.12614441 -7.33534241 51.12614441 -5.41346741 49.80973816 C-0.94980088 46.5873051 3.02502994 42.96414449 7.03477478 39.20646667 C9.3374596 37.05487164 11.63494786 35.01832826 14.13731384 33.09880066 C16.58819466 31.36234893 16.58819466 31.36234893 17.33653259 28.24723816 C18.16153259 27.77286316 18.98653259 27.29848816 19.83653259 26.80973816 C22.50046295 25.52202962 22.50046295 25.52202962 22.99278259 23.14958191 C23.10622009 22.52180847 23.21965759 21.89403503 23.33653259 21.24723816 C22.11752258 21.25509338 22.11752258 21.25509338 20.87388611 21.2631073 C17.21560937 21.2838081 13.55734492 21.29687619 9.89903259 21.30973816 C8.61963806 21.31811707 7.34024353 21.32649597 6.02207947 21.33512878 C4.19966736 21.33996277 4.19966736 21.33996277 2.34043884 21.34489441 C1.21452332 21.35013123 0.08860779 21.35536804 -1.07142639 21.36076355 C-3.66346741 21.24723816 -3.66346741 21.24723816 -4.66346741 20.24723816 C-4.79014505 17.25705655 -4.84867579 14.30029708 -4.85096741 11.30973816 C-4.8632135 10.47249207 -4.87545959 9.63524597 -4.88807678 8.77262878 C-4.89001038 7.97147644 -4.89194397 7.1703241 -4.89393616 6.34489441 C-4.89804504 5.60763123 -4.90215393 4.87036804 -4.90638733 4.11076355 C-4.48173803 0.85312728 -3.10715538 0.28842379 0 0 Z " fill="#CABCF7" transform="translate(553.6634674072266,15.752761840820313)"/>
<path d="M0 0 C1.1325119 0.00444122 2.2650238 0.00888245 3.43185425 0.01345825 C4.71303131 0.01360931 5.99420837 0.01376038 7.31420898 0.01391602 C8.71784621 0.02413008 10.12148186 0.03456209 11.52511597 0.04519653 C12.95715132 0.04892612 14.38918922 0.05177335 15.82122803 0.05377197 C19.59259064 0.06141276 23.3637995 0.08106495 27.13510132 0.10317993 C30.98253296 0.12362884 34.82998941 0.13277164 38.67745972 0.14285278 C46.2283111 0.16431053 53.77903575 0.19845171 61.32980347 0.24050903 C61.32980347 0.57050903 61.32980347 0.90050903 61.32980347 1.24050903 C40.53980347 1.57050903 19.74980347 1.90050903 -1.67019653 2.24050903 C-1.67019653 7.19050903 -1.67019653 12.14050903 -1.67019653 17.24050903 C8.55980347 17.57050903 18.78980347 17.90050903 29.32980347 18.24050903 C29.32980347 19.89050903 29.32980347 21.54050903 29.32980347 23.24050903 C26.89230347 24.99050903 26.89230347 24.99050903 25.22042847 25.96316528 C22.88387078 27.54179 21.09868199 29.39773852 19.14230347 31.42800903 C14.99179812 35.69050104 10.55510525 39.3899192 5.90792847 43.09597778 C3.59648121 45.01868163 1.52572692 47.00353941 -0.54519653 49.17800903 C-3.03657199 51.77144084 -5.12248694 53.27295187 -8.67019653 54.24050903 C-8.67019653 53.58050903 -8.67019653 52.92050903 -8.67019653 52.24050903 C-7.34207153 51.11941528 -7.34207153 51.11941528 -5.42019653 49.80300903 C-0.95653001 46.58057598 3.01830082 42.95741536 7.02804565 39.19973755 C9.33073047 37.04814251 11.62821874 35.01159913 14.13058472 33.09207153 C16.58146553 31.35561981 16.58146553 31.35561981 17.32980347 28.24050903 C18.15480347 27.76613403 18.97980347 27.29175903 19.82980347 26.80300903 C22.49373382 25.51530049 22.49373382 25.51530049 22.98605347 23.14285278 C23.09949097 22.51507935 23.21292847 21.88730591 23.32980347 21.24050903 C22.11079346 21.24836426 22.11079346 21.24836426 20.86715698 21.25637817 C17.20888025 21.27707897 13.55061579 21.29014706 9.89230347 21.30300903 C8.61290894 21.31138794 7.3335144 21.31976685 6.01535034 21.32839966 C4.19293823 21.33323364 4.19293823 21.33323364 2.33370972 21.33816528 C1.20779419 21.3434021 0.08187866 21.34863892 -1.07815552 21.35403442 C-3.67019653 21.24050903 -3.67019653 21.24050903 -4.67019653 20.24050903 C-4.79687418 17.25032742 -4.85540492 14.29356795 -4.85769653 11.30300903 C-4.86994263 10.46576294 -4.88218872 9.62851685 -4.89480591 8.76589966 C-4.8967395 7.96474731 -4.8986731 7.16359497 -4.90066528 6.33816528 C-4.90477417 5.6009021 -4.90888306 4.86363892 -4.91311646 4.10403442 C-4.48776678 0.84102528 -3.11239205 0.28033832 0 0 Z " fill="#BAA8F6" transform="translate(553.6701965332031,15.759490966796875)"/>
<path d="M0 0 C0.99 0.495 0.99 0.495 2 1 C1.48050781 1.44730469 0.96101562 1.89460938 0.42578125 2.35546875 C-6.39968081 8.1617768 -6.39968081 8.1617768 -12.390625 14.79296875 C-15.94309423 19.32704131 -18.28094287 20.57023572 -24 22 C-25.20003343 23.81601365 -25.20003343 23.81601365 -26 26 C-28.5 28.75 -28.5 28.75 -31 31 C-31.66 31 -32.32 31 -33 31 C-33 31.66 -33 32.32 -33 33 C-33.70511719 33.41765625 -34.41023438 33.8353125 -35.13671875 34.265625 C-38.53405307 36.3234919 -41.08395951 38.90953295 -43.8125 41.75 C-56.11263193 54.28871207 -56.11263193 54.28871207 -62 57 C-62 57.66 -62 58.32 -62 59 C-64.671875 59.3515625 -64.671875 59.3515625 -68 59 C-70.0213386 57.15208986 -71.57074635 55.4917115 -73.25 53.375 C-77.32084035 48.56841481 -81.13688262 45.19652821 -86.80859375 42.28125 C-89.31906519 40.81345208 -91.09310502 39.18923706 -93 37 C-93 36.34 -93 35.68 -93 35 C-93.66 35 -94.32 35 -95 35 C-95 34.34 -95 33.68 -95 33 C-95.66 33 -96.32 33 -97 33 C-98.49524178 30.7272325 -99.78399715 28.4320057 -101 26 C-98.50638429 27.20381448 -96.31856917 28.45428722 -94 30 C-94 30.66 -94 31.32 -94 32 C-93.195625 32.268125 -92.39125 32.53625 -91.5625 32.8125 C-90.716875 33.204375 -89.87125 33.59625 -89 34 C-88.67 34.99 -88.34 35.98 -88 37 C-87.1028125 37.433125 -87.1028125 37.433125 -86.1875 37.875 C-83.32114553 39.34912515 -81.98782471 41.49918826 -80 44 C-78.515 44.495 -78.515 44.495 -77 45 C-77 45.66 -77 46.32 -77 47 C-76.34 47 -75.68 47 -75 47 C-73.2166856 49.01240517 -71.59287682 51.12247855 -69.94921875 53.25 C-68.10781417 55.22545582 -68.10781417 55.22545582 -65.41796875 55.390625 C-61.8330905 54.81148473 -60.4725636 52.59030473 -58 50 C-56.94296875 49.43023437 -55.8859375 48.86046875 -54.796875 48.2734375 C-50.37757542 45.82739044 -47.11370733 42.48272507 -43.625 38.875 C-42.99722656 38.24207031 -42.36945313 37.60914063 -41.72265625 36.95703125 C-38.46672174 33.76957491 -38.46672174 33.76957491 -36 30 C-35.278125 29.773125 -34.55625 29.54625 -33.8125 29.3125 C-30.96289371 27.98268373 -30.23849909 27.25703797 -28.375 24.875 C-25.04000677 20.70625846 -20.98576894 17.96238183 -16.5859375 14.9921875 C-13.87677874 12.90507123 -12.09879246 10.68321231 -10 8 C-7.9296875 6.26953125 -7.9296875 6.26953125 -5.875 4.8125 C-3.72823926 3.27736355 -1.87123536 1.87123536 0 0 Z " fill="#C0AFF6" transform="translate(529,110)"/>
<path d="M0 0 C0.99 0.33 1.98 0.66 3 1 C-1.75 5 -1.75 5 -4 5 C-4.20238281 5.53882812 -4.40476562 6.07765625 -4.61328125 6.6328125 C-6.57038177 9.97366578 -9.330869 12.31986673 -12.1875 14.875 C-12.77466797 15.40657715 -13.36183594 15.9381543 -13.96679688 16.48583984 C-15.12408818 17.53067011 -16.2840021 18.5726043 -17.44677734 19.61132812 C-18.71821277 20.74806574 -19.97970025 21.89592134 -21.23828125 23.046875 C-24.35933205 25.84267217 -27.11159489 27.51325687 -31 29 C-31.495 30.485 -31.495 30.485 -32 32 C-33.97946592 33.36363208 -35.9819245 34.69418644 -38 36 C-38.680625 36.680625 -39.36125 37.36125 -40.0625 38.0625 C-42 40 -42 40 -44.375 41.375 C-46.68762444 42.80662465 -48.14337967 44.06721063 -50 46 C-51.78506129 47.85755109 -53.12183256 49.07053464 -55.375 50.375 C-60.52789568 53.5648878 -64.51107796 58.40472639 -68.625 62.8125 C-71.25071381 65.23092061 -73.81609 66.408045 -77 68 C-79.42739459 69.89884899 -81.72591573 71.92102947 -84 74 C-84.33 73.34 -84.66 72.68 -85 72 C-83.37562145 70.66590963 -81.75045282 69.33278126 -80.125 68 C-79.11566406 67.17113281 -78.10632813 66.34226562 -77.06640625 65.48828125 C-75.2154447 63.9862908 -73.3517343 62.49956685 -71.46484375 61.04296875 C-65.87323908 56.7242497 -60.89217942 52.05151441 -56.02172852 46.94799805 C-53.6886461 44.5327235 -52.23815341 43.07938447 -49 42 C-48.67 41.01 -48.34 40.02 -48 39 C-46.03501678 37.61558 -44.02951535 36.28796166 -42 35 C-41.113125 34.278125 -40.22625 33.55625 -39.3125 32.8125 C-37 31 -37 31 -34 30 C-33.236875 29.236875 -32.47375 28.47375 -31.6875 27.6875 C-29 25 -29 25 -25.75 22.9375 C-22.84682529 21.35934259 -22.84682529 21.35934259 -22.59375 19.0703125 C-21.75882826 16.15907222 -20.28569305 15.51181274 -17.75 13.9375 C-16.94046875 13.42445312 -16.1309375 12.91140625 -15.296875 12.3828125 C-13.54848141 11.3302082 -11.7787095 10.31302409 -10 9.3125 C-7.68544446 8.08907387 -7.68544446 8.08907387 -7 5 C-5.03852126 3.61061923 -3.03833424 2.2739589 -1 1 C-0.67 0.67 -0.34 0.34 0 0 Z " fill="#BBAAF5" transform="translate(395,107)"/>
<path d="M0 0 C0.99 0.495 0.99 0.495 2 1 C-3.75 6 -3.75 6 -6 6 C-6.33 6.99 -6.66 7.98 -7 9 C-8.56640625 10.578125 -8.56640625 10.578125 -10.5625 12.25 C-13.48967572 14.72078811 -16.35537053 17.23343153 -19.1875 19.8125 C-21.97072897 22.26086316 -24.36893306 23.97876242 -28 25 C-28 25.66 -28 26.32 -28 27 C-30.08203125 28.69140625 -30.08203125 28.69140625 -32.8125 30.5625 C-33.70582031 31.18253906 -34.59914063 31.80257812 -35.51953125 32.44140625 C-38 34 -38 34 -41 35 C-41.33 35.99 -41.66 36.98 -42 38 C-42.99 38 -43.98 38 -45 38 C-45 38.66 -45 39.32 -45 40 C-47.32023335 42.05506382 -49.58324735 43.7747283 -52.3125 45.25 C-56.41799828 47.92334772 -59.62387552 51.47308088 -63 55 C-63.99 54.67 -64.98 54.34 -66 54 C-64.41905209 51.58697424 -63.18798233 50.11177327 -60.6875 48.625 C-57.74540247 46.8460573 -55.74247607 44.81750102 -53.4296875 42.3046875 C-52 41 -52 41 -49 40 C-48.67 39.01 -48.34 38.02 -48 37 C-46.6846659 36.29848848 -45.34882408 35.63474075 -44 35 C-43.46375 34.46375 -42.9275 33.9275 -42.375 33.375 C-41.92125 32.92125 -41.4675 32.4675 -41 32 C-40.34 32 -39.68 32 -39 32 C-39 31.34 -39 30.68 -39 30 C-37.02866014 28.62464661 -35.02318078 27.29788956 -33 26 C-32.154375 25.29875 -31.30875 24.5975 -30.4375 23.875 C-28 22 -28 22 -25.625 21.125 C-21.84162695 19.50355441 -18.82503443 16.98451218 -16 14 C-15.67 13.01 -15.34 12.02 -15 11 C-13.35666496 9.96210419 -11.68756133 8.96432076 -10 8 C-8.37485532 6.54166642 -8.37485532 6.54166642 -7 5 C-4.86207842 2.6761722 -2.97066943 1.14993655 0 0 Z " fill="#C5B5F5" transform="translate(123,179)"/>
<path d="M0 0 C0.33 0 0.66 0 1 0 C2.00213746 7.96102854 2.14594394 15.83084458 2.1328125 23.84765625 C2.13424759 25.7872245 2.13424759 25.7872245 2.13571167 27.76597595 C2.13717411 30.47965716 2.13507821 33.19330512 2.13037109 35.90698242 C2.12462306 39.39069993 2.12799363 42.87434123 2.13394356 46.35805607 C2.13840852 49.68792906 2.1352928 53.01778109 2.1328125 56.34765625 C2.13483673 57.6016774 2.13686096 58.85569855 2.13894653 60.14772034 C2.13579437 61.29659225 2.13264221 62.44546417 2.12939453 63.62915039 C2.12859894 64.64489639 2.12780334 65.6606424 2.12698364 66.70716858 C2 69 2 69 1 70 C-0.4887186 70.08669432 -1.981445 70.10703494 -3.47265625 70.09765625 C-4.37177734 70.09443359 -5.27089844 70.09121094 -6.19726562 70.08789062 C-7.61555664 70.07532227 -7.61555664 70.07532227 -9.0625 70.0625 C-10.01189453 70.05798828 -10.96128906 70.05347656 -11.93945312 70.04882812 C-14.29303065 70.0370011 -16.64648477 70.02052025 -19 70 C-19 69.67 -19 69.34 -19 69 C-13.06 68.67 -7.12 68.34 -1 68 C-0.67 45.56 -0.34 23.12 0 0 Z " fill="#AB96F6" transform="translate(616,19)"/>
<path d="M0 0 C0.66 0 1.32 0 2 0 C1.64231781 3.21913971 0.89054667 4.106717 -1.5 6.4375 C-4.11827631 9.12123322 -4.68697176 10.3480039 -5 14 C-4.401875 14.226875 -3.80375 14.45375 -3.1875 14.6875 C-0.43648112 16.33811133 0.52484637 18.1972081 2 21 C9.91468709 19.33845169 16.16009738 14.34288963 22 9 C22.66 9.33 23.32 9.66 24 10 C22.41905209 12.41302576 21.18798233 13.88822673 18.6875 15.375 C16.21772684 16.86835121 15.08173229 17.99389872 13.25 20.125 C10.23630666 23.18517705 7.54786831 24.31635888 3.2578125 24.578125 C-0.75156715 23.55150184 -2.517567 20.47462545 -4.78515625 17.19921875 C-6 15 -6 15 -6 13 C-6.66 13 -7.32 13 -8 13 C-9.125 8.25 -9.125 8.25 -8 6 C-7.401875 5.71125 -6.80375 5.4225 -6.1875 5.125 C-3.84447898 4.0608235 -3.84447898 4.0608235 -1.875 1.875 C-1.25625 1.25625 -0.6375 0.6375 0 0 Z " fill="#C7B8F5" transform="translate(33,225)"/>
<path d="M0 0 C3.32505958 -0.54535861 5.78307546 -0.68769691 8.78857422 1.01074219 C10.59370778 2.38651654 12.26611206 3.83985608 13.9375 5.375 C14.52595703 5.88289062 15.11441406 6.39078125 15.72070312 6.9140625 C17.19930621 8.21921737 18.60647003 9.60437449 20 11 C20 11.66 20 12.32 20 13 C20.9075 13.268125 21.815 13.53625 22.75 13.8125 C25.78604762 14.92182509 27.52387991 16.00312896 30 18 C30.72445312 18.4228125 31.44890625 18.845625 32.1953125 19.28125 C35.56733176 21.34766849 38.67536199 23.65980902 41.8125 26.0625 C42.40998047 26.50916016 43.00746094 26.95582031 43.62304688 27.41601562 C45.12106187 28.56135509 46.56575557 29.77574744 48 31 C48 31.66 48 32.32 48 33 C44.34683329 31.75023244 43.21934164 31.32901247 41 28 C39.35965807 27.27095914 37.68698082 26.61344757 36 26 C28.89883908 23.09497963 23.54623133 17.72810499 18.375 12.1875 C15.41162216 9.45807304 12.75863822 8.40027698 9 7 C9 6.34 9 5.68 9 5 C8.34 5 7.68 5 7 5 C7 4.34 7 3.68 7 3 C6.01 3 5.02 3 4 3 C4 2.34 4 1.68 4 1 C2.02 1.66 0.04 2.32 -2 3 C-1.34 2.01 -0.68 1.02 0 0 Z " fill="#CBBCF7" transform="translate(160,127)"/>
<path d="M0 0 C3 1 3 1 4.625 3.125 C7.32451208 6.39283042 10.28682192 8.65149999 13.68359375 11.15625 C16.33717318 13.26837393 18.62087182 15.5803185 21 18 C23.83305504 20.77230307 26.69521997 23.51316276 29.5625 26.25 C30.31724609 26.9821875 31.07199219 27.714375 31.84960938 28.46875 C32.94692383 29.51289063 32.94692383 29.51289063 34.06640625 30.578125 C34.72584229 31.21137695 35.38527832 31.84462891 36.06469727 32.49707031 C38.1132634 34.08795881 39.43342241 34.71423467 42 35 C44.21765724 33.82060078 44.21765724 33.82060078 46.25 32.0625 C46.95640625 31.49660156 47.6628125 30.93070313 48.390625 30.34765625 C48.92171875 29.90292969 49.4528125 29.45820313 50 29 C50.66 29.33 51.32 29.66 52 30 C51 32 51 32 49.1875 32.8125 C46.34801372 34.35393541 44.89807066 36.42404696 43 39 C38.36435406 38.54695258 36.72819219 37.04478151 33.8125 33.5 C28.31183557 27.11301588 22.49922084 20.81563892 15.0625 16.6875 C11.03948325 14.35795026 8.11681555 11.20771848 5 7.8125 C4.50636963 7.2764917 4.01273926 6.7404834 3.50415039 6.18823242 C0 2.2659908 0 2.2659908 0 0 Z " fill="#C1B1F5" transform="translate(423,104)"/>
<path d="M0 0 C2.49361571 1.20381448 4.68143083 2.45428722 7 4 C7 4.66 7 5.32 7 6 C7.804375 6.268125 8.60875 6.53625 9.4375 6.8125 C10.283125 7.204375 11.12875 7.59625 12 8 C12.33 8.99 12.66 9.98 13 11 C13.8971875 11.433125 13.8971875 11.433125 14.8125 11.875 C17.67885447 13.34912515 19.01217529 15.49918826 21 18 C21.99 18.33 22.98 18.66 24 19 C24 19.66 24 20.32 24 21 C24.66 21 25.32 21 26 21 C27.7833144 23.01240517 29.40712318 25.12247855 31.05078125 27.25 C32.88963748 29.21945517 32.88963748 29.21945517 35.5546875 29.40625 C39.16378879 28.8066549 40.65535218 26.67959751 43 24 C43.66 24.33 44.32 24.66 45 25 C44.195625 25.763125 43.39125 26.52625 42.5625 27.3125 C39.83200976 29.79430898 39.83200976 29.79430898 39 33 C36.328125 33.3515625 36.328125 33.3515625 33 33 C30.9786614 31.15208986 29.42925365 29.4917115 27.75 27.375 C23.67915965 22.56841481 19.86311738 19.19652821 14.19140625 16.28125 C11.68093481 14.81345208 9.90689498 13.18923706 8 11 C8 10.34 8 9.68 8 9 C7.34 9 6.68 9 6 9 C6 8.34 6 7.68 6 7 C5.34 7 4.68 7 4 7 C2.50475822 4.7272325 1.21600285 2.4320057 0 0 Z " fill="#C8B9F6" transform="translate(428,136)"/>
<path d="M0 0 C0.66 0.33 1.32 0.66 2 1 C-1.34662225 5.33092291 -4.36267599 8.00506158 -9 11 C-12.46292851 14.29910318 -15.57523447 17.81081042 -18.6875 21.4375 C-22.6950715 25.8876988 -26.5510771 28.93719937 -31.79296875 31.78515625 C-34.44629239 33.24565829 -36.71468834 35.01939656 -39 37 C-39.33 36.34 -39.66 35.68 -40 35 C-38.8803014 33.99406757 -37.7540588 32.9954151 -36.625 32 C-35.99851562 31.443125 -35.37203125 30.88625 -34.7265625 30.3125 C-33 29 -33 29 -31 29 C-31 28.34 -31 27.68 -31 27 C-29.02709413 24.65130253 -27.99693138 23.99897713 -25 23 C-24.67 22.01 -24.34 21.02 -24 20 C-18.53488372 15 -18.53488372 15 -16 15 C-16 14.34 -16 13.68 -16 13 C-15.01 13 -14.02 13 -13 13 C-12.67 11.68 -12.34 10.36 -12 9 C-11.34 9 -10.68 9 -10 9 C-10 8.34 -10 7.68 -10 7 C-8.906875 6.5875 -7.81375 6.175 -6.6875 5.75 C-3.48984058 4.39714409 -1.79346574 3.05944156 0 0 Z " fill="#C8B8F5" transform="translate(543,70)"/>
<path d="M0 0 C2.0625 -0.4375 2.0625 -0.4375 5 0 C6.90015506 1.60408439 8.53441506 3.35520385 10.21875 5.18359375 C11.87660058 6.87416506 13.43467439 8.07018128 15.4375 9.3125 C16.7059375 10.1478125 16.7059375 10.1478125 18 11 C18 11.66 18 12.32 18 13 C18.59296875 13.24492188 19.1859375 13.48984375 19.796875 13.7421875 C22.36698726 15.20952109 23.54529966 16.72292225 25.25 19.125 C26.03117187 20.21167969 26.03117187 20.21167969 26.828125 21.3203125 C27.21484375 21.87460938 27.6015625 22.42890625 28 23 C23.53174574 20.94137755 20.69728932 17.82785004 17.375 14.25 C15.90383382 12.74340914 15.90383382 12.74340914 13 12 C11.19669833 9.97876377 9.56604779 7.86091597 7.9140625 5.71484375 C6.11407758 3.81099952 6.11407758 3.81099952 3.5859375 3.51171875 C0.18267849 4.15432808 -1.40983245 5.60050912 -4 7.875 C-7.27104946 10.72694624 -9.96477919 12.44907165 -14 14 C-14.309375 14.639375 -14.61875 15.27875 -14.9375 15.9375 C-16.51385493 18.9974831 -18.93292486 19.66648907 -22 21 C-22 20.34 -22 19.68 -22 19 C-20.55170378 18.05692339 -19.10095434 17.11735249 -17.63671875 16.19921875 C-15.49013252 14.62642168 -14.04890065 12.60969202 -12.4296875 10.51953125 C-10.19343455 8.14274875 -7.49676347 6.67110722 -4.671875 5.078125 C-2.83507443 4.09458294 -2.83507443 4.09458294 -2 2 C-1.34 2 -0.68 2 0 2 C0 1.34 0 0.68 0 0 Z " fill="#BDACF5" transform="translate(395,81)"/>
<path d="M0 0 C2.9375 1.75 2.9375 1.75 6 4 C7.11375 4.70125 8.2275 5.4025 9.375 6.125 C10.674375 7.053125 10.674375 7.053125 12 8 C12 8.66 12 9.32 12 10 C12.78375 10.2475 13.5675 10.495 14.375 10.75 C17.32317108 12.15389099 17.9024777 13.00675737 19 16 C15.88626628 14.50079488 12.87771795 12.91847864 10 11 C10 10.34 10 9.68 10 9 C9.484375 8.773125 8.96875 8.54625 8.4375 8.3125 C5.6247726 6.79795448 3.26330711 4.92835006 0.78125 2.92578125 C-0.93946999 1.8484599 -0.93946999 1.8484599 -2.8515625 2.05078125 C-5.98096865 3.43340979 -8.34398065 5.62449665 -10.875 7.875 C-14.682884 11.25437532 -18.37430925 13.81656778 -23 16 C-23.556875 16.556875 -24.11375 17.11375 -24.6875 17.6875 C-25.120625 18.120625 -25.55375 18.55375 -26 19 C-26.99 19 -27.98 19 -29 19 C-29 18.34 -29 17.68 -29 17 C-27.35061991 15.97173782 -25.67980805 14.97776413 -24 14 C-22.20709359 12.56889085 -20.43709948 11.10874138 -18.6875 9.625 C-5.4552675 -1.29203704 -5.4552675 -1.29203704 0 0 Z " fill="#C9BAF7" transform="translate(165,151)"/>
<path d="M0 0 C0.66 0.33 1.32 0.66 2 1 C-9.99810606 12.23822601 -9.99810606 12.23822601 -16.25 16.71875 C-18.03689331 18.02701117 -19.70086539 19.42622967 -21.375 20.875 C-24 23 -24 23 -26 23 C-26 23.66 -26 24.32 -26 25 C-28.01171875 26.98046875 -28.01171875 26.98046875 -30.6875 29.1875 C-31.55761719 29.92355469 -32.42773438 30.65960938 -33.32421875 31.41796875 C-36 33 -36 33 -38.71875 32.8359375 C-41.16780552 31.93850962 -42.35244968 30.99440302 -44 29 C-43.67 28.34 -43.34 27.68 -43 27 C-42.608125 27.495 -42.21625 27.99 -41.8125 28.5 C-40.08274485 30.18535784 -40.08274485 30.18535784 -37.66796875 30.3984375 C-33.88402354 29.8333388 -32.86294914 28.06204593 -30.5 25.125 C-27.46520327 21.3742477 -25.46944352 19.69900079 -21 18 C-20.67 17.01 -20.34 16.02 -20 15 C-19.01 14.67 -18.02 14.34 -17 14 C-16.67 13.01 -16.34 12.02 -16 11 C-14.35178756 9.96986723 -12.68496298 8.96885372 -11 8 C-10.67 7.34 -10.34 6.68 -10 6 C-9.2575 5.71125 -8.515 5.4225 -7.75 5.125 C-4.66221961 3.86181712 -2.52111915 2.16095927 0 0 Z " fill="#C0B0F5" transform="translate(295,192)"/>
<path d="M0 0 C1.34313399 0.64669414 2.67391178 1.31903578 4 2 C4.763125 2.37125 5.52625 2.7425 6.3125 3.125 C9.49439062 5.34492369 11.62644186 7.93269596 14.109375 10.890625 C15.97425387 12.97127498 17.91686804 14.71470318 20.0625 16.5 C24.06468287 19.87806078 27.04777084 23.69466581 30 28 C27.09336358 26.61503827 25.26543427 25.26543427 23 23 C21.34467377 21.98133771 19.67739862 20.98189187 18 20 C15.6875 18.4375 15.6875 18.4375 14 17 C14 16.34 14 15.68 14 15 C13.34 15 12.68 15 12 15 C12 14.34 12 13.68 12 13 C11.34 13 10.68 13 10 13 C10 12.34 10 11.68 10 11 C9.34 11 8.68 11 8 11 C8 10.34 8 9.68 8 9 C7.401875 8.773125 6.80375 8.54625 6.1875 8.3125 C2.87221937 6.32333162 1.68629411 3.37258822 0 0 Z " fill="#C0B0F5" transform="translate(398,108)"/>
<path d="M0 0 C0.66 0.33 1.32 0.66 2 1 C0.71937515 2.7074998 -0.61767557 4.37373596 -2 6 C-2.66 6 -3.32 6 -4 6 C-4 6.66 -4 7.32 -4 8 C-5.50787161 9.37491299 -7.08539761 10.67364462 -8.6875 11.9375 C-10.17443359 13.12859375 -10.17443359 13.12859375 -11.69140625 14.34375 C-12.49215576 14.98376953 -12.49215576 14.98376953 -13.30908203 15.63671875 C-16.27994226 18.03193728 -19.20451612 20.48129608 -22.125 22.9375 C-22.69307373 23.40986084 -23.26114746 23.88222168 -23.84643555 24.36889648 C-26.85249872 26.82521541 -26.85249872 26.82521541 -29 30 C-31.5625 30.625 -31.5625 30.625 -34 31 C-30.15159847 27.02745649 -26.07173193 23.38992682 -21.890625 19.76953125 C-19.92091997 18.13136012 -19.92091997 18.13136012 -19 16 C-18.175 15.525625 -17.35 15.05125 -16.5 14.5625 C-13.70844517 13.18680459 -13.70844517 13.18680459 -13 10 C-10.6875 7.3125 -10.6875 7.3125 -8 5 C-6.68 5 -5.36 5 -4 5 C-4 4.34 -4 3.68 -4 3 C-3.34 3 -2.68 3 -2 3 C-2 2.34 -2 1.68 -2 1 C-1.34 0.67 -0.68 0.34 0 0 Z " fill="#CFC0F7" transform="translate(360,111)"/>
<path d="M0 0 C0.33 0 0.66 0 1 0 C1.33 4.62 1.66 9.24 2 14 C12.23 14.33 22.46 14.66 33 15 C33 16.65 33 18.3 33 20 C31.68 20.33 30.36 20.66 29 21 C29.33 19.68 29.66 18.36 30 17 C29.16227051 17.01047363 28.32454102 17.02094727 27.46142578 17.03173828 C24.35661836 17.06580019 21.25190608 17.09088911 18.14697266 17.10986328 C16.1408864 17.12488107 14.13488676 17.15028981 12.12890625 17.17578125 C10.87207031 17.18222656 9.61523438 17.18867187 8.3203125 17.1953125 C7.15773926 17.20578613 5.99516602 17.21625977 4.79736328 17.22705078 C2 17 2 17 0 15 C-0.14497985 12.41935871 -0.18677545 9.95056116 -0.125 7.375 C-0.11597656 6.66859375 -0.10695313 5.9621875 -0.09765625 5.234375 C-0.07407603 3.48943902 -0.03820461 1.74467705 0 0 Z " fill="#CABBF6" transform="translate(550,19)"/>
<path d="M0 0 C0.66 0.33 1.32 0.66 2 1 C-0.22523041 2.94218351 -2.45492465 4.87879088 -4.6875 6.8125 C-5.62625977 7.63331055 -5.62625977 7.63331055 -6.58398438 8.47070312 C-14.90491219 15.65893919 -14.90491219 15.65893919 -19.6875 16.4375 C-22.18295184 16.76165907 -22.18295184 16.76165907 -23.3125 19.0625 C-23.539375 19.701875 -23.76625 20.34125 -24 21 C-24.66 20.67 -25.32 20.34 -26 20 C-25 17 -25 17 -22.625 15.3125 C-20 14 -20 14 -17 14 C-16.90976563 13.3915625 -16.81953125 12.783125 -16.7265625 12.15625 C-15.80523246 9.42198019 -14.8489523 8.91368703 -12.375 7.5 C-11.65957031 7.08234375 -10.94414063 6.6646875 -10.20703125 6.234375 C-9.47871094 5.82703125 -8.75039062 5.4196875 -8 5 C-6.98486328 4.41992188 -6.98486328 4.41992188 -5.94921875 3.828125 C-4.29947917 2.88541667 -2.64973958 1.94270833 -1 1 C-0.67 0.67 -0.34 0.34 0 0 Z " fill="#BEADF5" transform="translate(111,165)"/>
<path d="M0 0 C0.495 0.99 0.495 0.99 1 2 C-0.051875 2.85271484 -0.051875 2.85271484 -1.125 3.72265625 C-6.33966968 7.96666051 -11.48491101 12.24084356 -16.44140625 16.78515625 C-18 18 -18 18 -20 18 C-20.25007812 18.5878125 -20.50015625 19.175625 -20.7578125 19.78125 C-22.16426885 22.29341102 -23.66640992 23.66645352 -25.875 25.5 C-28.71084912 27.89758153 -31.42508238 30.31779415 -34 33 C-34.66 32.67 -35.32 32.34 -36 32 C-32.51533275 28.4064369 -28.86739905 25.096325 -25.0625 21.84375 C-23.5595403 20.50019512 -22.10847663 19.09791713 -20.69140625 17.6640625 C-17.56635706 14.57076273 -14.28536466 11.72228257 -10.9375 8.875 C-10.32583984 8.35035156 -9.71417969 7.82570313 -9.08398438 7.28515625 C-6.12312933 4.756426 -3.15748392 2.28346717 0 0 Z " fill="#BDABF5" transform="translate(573,71)"/>
<path d="M0 0 C1.9375 0.3125 1.9375 0.3125 4 1 C4.33 1.99 4.66 2.98 5 4 C6.31403276 4.70394612 7.6520257 5.36345658 9 6 C9.804375 6.66 10.60875 7.32 11.4375 8 C13.91928137 9.93700009 16.04163782 10.98570439 19 12 C19 12.66 19 13.32 19 14 C19.598125 14.2475 20.19625 14.495 20.8125 14.75 C23.28647521 16.16370012 24.43370255 17.65055383 26 20 C24.02 19.34 22.04 18.68 20 18 C20 17.01 20 16.02 20 15 C19.38511719 14.81824219 18.77023438 14.63648438 18.13671875 14.44921875 C17.32847656 14.19785156 16.52023438 13.94648438 15.6875 13.6875 C14.88699219 13.44386719 14.08648437 13.20023438 13.26171875 12.94921875 C9.60943411 11.41639463 8.17807759 9.26711639 6 6 C4.03247172 4.93753473 2.03412421 3.92862192 0 3 C0 2.01 0 1.02 0 0 Z " fill="#C3B2F7" transform="translate(225,199)"/>
<path d="M0 0 C0.66 0.33 1.32 0.66 2 1 C-2.13026472 6.21717649 -6.55967108 10.23768573 -11.828125 14.30078125 C-14.04628882 15.96548962 -14.04628882 15.96548962 -16 18 C-18.125 17.625 -18.125 17.625 -20 17 C-18.71034824 15.62437146 -17.37310707 14.29233607 -16 13 C-15.34 13 -14.68 13 -14 13 C-14 12.34 -14 11.68 -14 11 C-12.1015625 9.2734375 -12.1015625 9.2734375 -9.625 7.375 C-8.81289063 6.74335938 -8.00078125 6.11171875 -7.1640625 5.4609375 C-5 4 -5 4 -3 4 C-3 3.34 -3 2.68 -3 2 C-2.01 1.34 -1.02 0.68 0 0 Z " fill="#CDBEF7" transform="translate(324,142)"/>
<path d="M0 0 C0.66 0.33 1.32 0.66 2 1 C-4.21335899 7.42968484 -10.47897261 13.36116488 -17.4921875 18.92578125 C-19.78358743 20.82100456 -21.82637429 22.78688644 -23.875 24.9375 C-26.36637546 27.5309318 -28.45229041 29.03244284 -32 30 C-32 29.34 -32 28.68 -32 28 C-30.671875 26.87890625 -30.671875 26.87890625 -28.75 25.5625 C-24.28633347 22.34006695 -20.31150265 18.71690633 -16.30175781 14.95922852 C-13.99907299 12.80763348 -11.70158473 10.7710901 -9.19921875 8.8515625 C-6.74833793 7.11511077 -6.74833793 7.11511077 -6 4 C-3.5 2.375 -3.5 2.375 -1 1 C-0.67 0.67 -0.34 0.34 0 0 Z " fill="#C5B5F6" transform="translate(577,40)"/>
<path d="M0 0 C0.66 0 1.32 0 2 0 C1.64231781 3.21913971 0.89054667 4.106717 -1.5 6.4375 C-4.11827631 9.12123322 -4.68697176 10.3480039 -5 14 C-3.68 14.66 -2.36 15.32 -1 16 C-1 16.99 -1 17.98 -1 19 C-2.7074998 17.71937515 -4.37373596 16.38232443 -6 15 C-6 14.34 -6 13.68 -6 13 C-6.66 13 -7.32 13 -8 13 C-9.125 8.25 -9.125 8.25 -8 6 C-7.401875 5.71125 -6.80375 5.4225 -6.1875 5.125 C-3.84447898 4.0608235 -3.84447898 4.0608235 -1.875 1.875 C-1.25625 1.25625 -0.6375 0.6375 0 0 Z " fill="#D9CCF7" transform="translate(33,225)"/>
<path d="M0 0 C0.66 0.33 1.32 0.66 2 1 C-1.34662225 5.33092291 -4.36267599 8.00506158 -9 11 C-9.845625 11.845625 -10.69125 12.69125 -11.5625 13.5625 C-13.9379833 15.9379833 -16.07308174 17.39019496 -19 19 C-19.928125 19.556875 -20.85625 20.11375 -21.8125 20.6875 C-22.534375 21.120625 -23.25625 21.55375 -24 22 C-24 21.34 -24 20.68 -24 20 C-18.52380952 15 -18.52380952 15 -16 15 C-16 14.34 -16 13.68 -16 13 C-15.01 13 -14.02 13 -13 13 C-12.67 11.68 -12.34 10.36 -12 9 C-11.34 9 -10.68 9 -10 9 C-10 8.34 -10 7.68 -10 7 C-8.906875 6.5875 -7.81375 6.175 -6.6875 5.75 C-3.48984058 4.39714409 -1.79346574 3.05944156 0 0 Z " fill="#BCABF4" transform="translate(543,70)"/>
<path d="M0 0 C0.66 0.33 1.32 0.66 2 1 C0.11204204 2.80063614 -1.78456911 4.59030514 -3.6875 6.375 C-4.48317383 7.13683594 -4.48317383 7.13683594 -5.29492188 7.9140625 C-8.406418 10.81558036 -10.94298374 12.55447488 -15 14 C-16.86071548 15.33200154 -16.86071548 15.33200154 -18.5 16.875 C-19.08910156 17.4009375 -19.67820312 17.926875 -20.28515625 18.46875 C-20.85105469 18.9740625 -21.41695312 19.479375 -22 20 C-23.65975389 21.34192868 -25.32346641 22.67909475 -27 24 C-27.66 23.67 -28.32 23.34 -29 23 C-27.7625 21.9790625 -27.7625 21.9790625 -26.5 20.9375 C-24.61354671 19.37737631 -22.77187871 17.79241837 -20.9609375 16.14453125 C-20.27257813 15.51933594 -19.58421875 14.89414063 -18.875 14.25 C-18.23304687 13.65703125 -17.59109375 13.0640625 -16.9296875 12.453125 C-15 11 -15 11 -12.8203125 10.484375 C-12.21960938 10.32453125 -11.61890625 10.1646875 -11 10 C-10.67 9.01 -10.34 8.02 -10 7 C-9.34 7 -8.68 7 -8 7 C-8 6.34 -8 5.68 -8 5 C-7.05125 4.54625 -6.1025 4.0925 -5.125 3.625 C-1.99686321 2.19761746 -1.99686321 2.19761746 0 0 Z " fill="#B3A0F4" transform="translate(72,194)"/>
<path d="M0 0 C2.0625 -0.4375 2.0625 -0.4375 5 0 C6.90015506 1.60408439 8.53441506 3.35520385 10.21875 5.18359375 C11.87660058 6.87416506 13.43467439 8.07018128 15.4375 9.3125 C16.283125 9.869375 17.12875 10.42625 18 11 C18 11.66 18 12.32 18 13 C18.59296875 13.24492188 19.1859375 13.48984375 19.796875 13.7421875 C22.36698726 15.20952109 23.54529966 16.72292225 25.25 19.125 C25.77078125 19.84945312 26.2915625 20.57390625 26.828125 21.3203125 C27.21484375 21.87460938 27.6015625 22.42890625 28 23 C23.53174574 20.94137755 20.69728932 17.82785004 17.375 14.25 C15.90383382 12.74340914 15.90383382 12.74340914 13 12 C11.24609375 10.22265625 11.24609375 10.22265625 9.4375 8.0625 C7.66869432 5.96656037 5.94005112 3.94005112 4 2 C2.68 2 1.36 2 0 2 C0 1.34 0 0.68 0 0 Z " fill="#B5A2F5" transform="translate(395,81)"/>
<path d="M0 0 C0.66 0.33 1.32 0.66 2 1 C-1.10951435 4.99794702 -3.51749415 7.55499681 -8 10 C-13.73739644 13.60481701 -18.94774852 17.48522208 -24 22 C-24.66 21.67 -25.32 21.34 -26 21 C-20.63875209 15.96333704 -15.33038606 11.36478705 -9.1171875 7.41796875 C-5.82683147 5.21428012 -2.9503456 2.63647904 0 0 Z " fill="#CEBFF6" transform="translate(139,143)"/>
<path d="M0 0 C0.99 0.33 1.98 0.66 3 1 C-1.75 5 -1.75 5 -4 5 C-4.226875 5.556875 -4.45375 6.11375 -4.6875 6.6875 C-7.39375279 11.45565968 -10.79339685 14.35580953 -16 16 C-16.99 16.33 -17.98 16.66 -19 17 C-19.33 17.99 -19.66 18.98 -20 20 C-20.66 20 -21.32 20 -22 20 C-22 19.01 -22 18.02 -22 17 C-20.20703125 15.5 -20.20703125 15.5 -17.8125 14 C-16.99394531 13.47792969 -16.17539062 12.95585938 -15.33203125 12.41796875 C-13.57458909 11.34937326 -11.79267204 10.32087802 -10 9.3125 C-7.68544446 8.08907387 -7.68544446 8.08907387 -7 5 C-5.03852126 3.61061923 -3.03833424 2.2739589 -1 1 C-0.67 0.67 -0.34 0.34 0 0 Z " fill="#C5B6F6" transform="translate(395,107)"/>
<path d="M0 0 C0.66 0.33 1.32 0.66 2 1 C-3.36102481 7.86881304 -9.61380993 13.38363121 -17 18 C-17.66 17.67 -18.32 17.34 -19 17 C-17.90220176 15.84806377 -16.79650554 14.70365063 -15.6875 13.5625 C-15.07261719 12.92441406 -14.45773437 12.28632813 -13.82421875 11.62890625 C-12 10 -12 10 -9 9 C-8.67 8.01 -8.34 7.02 -8 6 C-6.03277992 4.61876037 -4.03131672 3.28511874 -2 2 C-1.34 1.34 -0.68 0.68 0 0 Z " fill="#CABBF7" transform="translate(355,140)"/>
<path d="M0 0 C4.84163264 1.31589425 7.89535794 3.24203694 11.6875 6.5 C14.41614842 8.82482355 17.0157339 11.01048926 20 13 C20 13.66 20 14.32 20 15 C16.34683329 13.75023244 15.21934164 13.32901247 13 10 C12.29875 9.7525 11.5975 9.505 10.875 9.25 C6.57452252 7.38022718 3.31616296 4.28324819 0 1 C0 0.67 0 0.34 0 0 Z " fill="#BAA8F5" transform="translate(188,145)"/>
<path d="M0 0 C0.66 0.33 1.32 0.66 2 1 C1.48050781 1.44730469 0.96101562 1.89460938 0.42578125 2.35546875 C-5.42008136 7.42332376 -10.77244271 12.56290711 -15.5703125 18.64453125 C-17 20 -17 20 -20 20 C-18.65284929 16.9055548 -17.2482789 15.10778741 -14.625 13 C-12.65835196 11.38135964 -10.80325804 9.80325804 -9 8 C-6.15370351 5.15370351 -3.07660015 2.59264058 0 0 Z " fill="#B5A3F5" transform="translate(529,110)"/>
<path d="M0 0 C0.33 0.66 0.66 1.32 1 2 C-1.36571486 3.96016374 -3.60418835 5.78604776 -6.3125 7.25 C-10.41799828 9.92334772 -13.62387552 13.47308088 -17 17 C-17.99 16.67 -18.98 16.34 -20 16 C-18.41905209 13.58697424 -17.18798233 12.11177327 -14.6875 10.625 C-12.30972374 9.18727482 -10.93089366 7.98577965 -9.0625 6 C-6.35532132 3.17328356 -3.62168789 1.55215195 0 0 Z " fill="#BFAEF5" transform="translate(77,217)"/>
<path d="M0 0 C6.525 3.15 6.525 3.15 8.1875 6.125 C10.84677523 10.3431607 14.41201809 13.56542349 18 17 C14.45595664 17 13.89732095 16.39010515 11.3125 14.125 C10.37857422 13.32449219 10.37857422 13.32449219 9.42578125 12.5078125 C8 11 8 11 8 9 C7.34 9 6.68 9 6 9 C6 8.34 6 7.68 6 7 C5.34 7 4.68 7 4 7 C2.50475822 4.7272325 1.21600285 2.4320057 0 0 Z " fill="#B7A5F4" transform="translate(428,136)"/>
<path d="M0 0 C0.99 0.33 1.98 0.66 3 1 C5.13661258 1.15070797 7.27712124 1.2485966 9.41796875 1.31640625 C10.67158203 1.35830078 11.92519531 1.40019531 13.21679688 1.44335938 C15.18229492 1.50233398 15.18229492 1.50233398 17.1875 1.5625 C18.52279978 1.60570992 19.85808652 1.649325 21.19335938 1.69335938 C24.46213297 1.79956502 27.73098333 1.90160997 31 2 C30.67 3.32 30.34 4.64 30 6 C29.34 6 28.68 6 28 6 C28 5.01 28 4.02 28 3 C19.09 3 10.18 3 1 3 C0.67 2.01 0.34 1.02 0 0 Z " fill="#AE9AF4" transform="translate(549,34)"/>
<path d="M0 0 C0.66 0.33 1.32 0.66 2 1 C-4.01368965 7.79356295 -4.01368965 7.79356295 -7.6875 8.5625 C-10.03808459 7.99073618 -11.92120519 7.23187841 -14 6 C-14 5.34 -14 4.68 -14 4 C-14.66 4 -15.32 4 -16 4 C-15.67 3.34 -15.34 2.68 -15 2 C-14.2575 2.515625 -13.515 3.03125 -12.75 3.5625 C-10.23057995 5.1663447 -10.23057995 5.1663447 -8.0625 4.9375 C-5.14477209 3.61126004 -2.61452523 1.84205187 0 0 Z " fill="#BDACF5" transform="translate(265,191)"/>
<path d="M0 0 C4.44872955 0.49430328 6.0095074 1.75317946 9 5 C10.40578421 6.26222629 11.82335462 7.51140103 13.25 8.75 C13.95640625 9.36359375 14.6628125 9.9771875 15.390625 10.609375 C15.92171875 11.06828125 16.4528125 11.5271875 17 12 C13.26348496 12 12.46026357 11.0244152 9.625 8.6875 C7.09500039 6.64038775 4.74524576 4.84922708 1.9375 3.1875 C1.298125 2.795625 0.65875 2.40375 0 2 C0 1.34 0 0.68 0 0 Z " fill="#D1C4F5" transform="translate(197,154)"/>
<path d="M0 0 C-1.11933362 3.35800085 -2.02405444 4.1056451 -4.6875 6.3125 C-8.31751335 9.38656536 -11.67903572 12.59601162 -15 16 C-15.99 15.67 -16.98 15.34 -18 15 C-16.64455078 13.75283203 -16.64455078 13.75283203 -15.26171875 12.48046875 C-14.07028184 11.38284577 -12.87887729 10.28518768 -11.6875 9.1875 C-11.09259766 8.64029297 -10.49769531 8.09308594 -9.88476562 7.52929688 C-9.30791016 6.99755859 -8.73105469 6.46582031 -8.13671875 5.91796875 C-7.60780029 5.43094482 -7.07888184 4.9439209 -6.53393555 4.44213867 C-5.46416563 3.43638809 -4.43109451 2.39078047 -3.42895508 1.31762695 C-2 0 -2 0 0 0 Z " fill="#DFD4F8" transform="translate(581,40)"/>
<path d="M0 0 C0.66 0.33 1.32 0.66 2 1 C-2.31593905 5.61170137 -6.05207561 9.5667582 -12 12 C-12.78375 12.391875 -13.5675 12.78375 -14.375 13.1875 C-14.91125 13.455625 -15.4475 13.72375 -16 14 C-16 13.34 -16 12.68 -16 12 C-11.72929633 8.1386884 -6.98277059 4.86886791 -2 2 C-1.34 1.34 -0.68 0.68 0 0 Z " fill="#B8A5F5" transform="translate(143,165)"/>
<path d="M0 0 C0.66 0.33 1.32 0.66 2 1 C-2.27293882 6.23435005 -6.81580806 10.67106815 -12 15 C-12.66 14.67 -13.32 14.34 -14 14 C-13.360625 13.401875 -12.72125 12.80375 -12.0625 12.1875 C-9.79689611 10.09189663 -9.79689611 10.09189663 -9 7 C-7.1875 5.4296875 -7.1875 5.4296875 -5 3.875 C-2.38851475 2.06989989 -2.38851475 2.06989989 0 0 Z " fill="#C2B2F5" transform="translate(499,109)"/>
<path d="M0 0 C0.66 0.33 1.32 0.66 2 1 C-4.82926829 9.30894309 -4.82926829 9.30894309 -8 11 C-10.25 10.6875 -10.25 10.6875 -12 10 C-10.6696875 9.1646875 -10.6696875 9.1646875 -9.3125 8.3125 C-6.15629131 6.21833309 -3.60542659 3.75430811 -1 1 C-0.67 0.67 -0.34 0.34 0 0 Z " fill="#CEC0F8" transform="translate(58,206)"/>
<path d="M0 0 C0.66 0.33 1.32 0.66 2 1 C-3.75 6 -3.75 6 -6 6 C-6.33 6.99 -6.66 7.98 -7 9 C-12.37142857 13 -12.37142857 13 -15 13 C-15 12.34 -15 11.68 -15 11 C-13.34928604 9.97388051 -11.68029994 8.97691857 -10 8 C-8.37485532 6.54166642 -8.37485532 6.54166642 -7 5 C-4.86207842 2.6761722 -2.97066943 1.14993655 0 0 Z " fill="#D4C7F8" transform="translate(123,179)"/>
<path d="M0 0 C0.66 0.33 1.32 0.66 2 1 C0.41905209 3.41302576 -0.81201767 4.88822673 -3.3125 6.375 C-6.79555627 8.48103402 -9.19028605 11.05960168 -12 14 C-12.66 13.67 -13.32 13.34 -14 13 C-12.23223041 11.20521865 -10.46097441 9.4141293 -8.6875 7.625 C-8.18798828 7.11710938 -7.68847656 6.60921875 -7.17382812 6.0859375 C-4.87457613 3.77145867 -2.72478775 1.81652517 0 0 Z " fill="#B4A1F6" transform="translate(55,234)"/>
<path d="M0 0 C0.66 0.33 1.32 0.66 2 1 C-0.8978033 5.12379701 -3.42975255 6.94805217 -8 9 C-9.67623498 9.98387706 -11.34634594 10.97862543 -13 12 C-13 10 -13 10 -10.75 7.375 C-8 5 -8 5 -4 5 C-4 4.34 -4 3.68 -4 3 C-3.34 3 -2.68 3 -2 3 C-2 2.34 -2 1.68 -2 1 C-1.34 0.67 -0.68 0.34 0 0 Z " fill="#B09DF4" transform="translate(360,111)"/>
<path d="M0 0 C0.66 0.33 1.32 0.66 2 1 C1.38125 1.2475 0.7625 1.495 0.125 1.75 C-2.38895216 3.22879539 -2.8534051 4.37921165 -4 7 C-4.66 7.66 -5.32 8.32 -6 9 C-6 10.32 -6 11.64 -6 13 C-6.66 13 -7.32 13 -8 13 C-9.125 8.25 -9.125 8.25 -8 6 C-7.401875 5.71125 -6.80375 5.4225 -6.1875 5.125 C-3.61179002 3.80034915 -1.96545196 2.10584139 0 0 Z " fill="#BFAEF6" transform="translate(33,225)"/>
<path d="M0 0 C5.59282842 1.36410449 8.91193811 4.15383526 13 8 C10 8 10 8 7 7 C7 6.34 7 5.68 7 5 C6.401875 4.87625 5.80375 4.7525 5.1875 4.625 C3 4 3 4 0 2 C0 1.34 0 0.68 0 0 Z " fill="#BBAAF5" transform="translate(190,173)"/>
<path d="M0 0 C0.66 0.33 1.32 0.66 2 1 C0.63875 2.11375 0.63875 2.11375 -0.75 3.25 C-2.68642496 4.85005067 -4.39321133 6.41634141 -6.125 8.25 C-8.1206041 10.11256383 -9.33267295 10.61895328 -12 11 C-8.68542782 6.30435607 -4.63720719 3.27530896 0 0 Z " fill="#B7A4F4" transform="translate(125,179)"/>
<path d="M0 0 C2.475 0.495 2.475 0.495 5 1 C5 1.66 5 2.32 5 3 C5.598125 3.2475 6.19625 3.495 6.8125 3.75 C9.28647521 5.16370012 10.43370255 6.65055383 12 9 C10.02 8.34 8.04 7.68 6 7 C6 6.01 6 5.02 6 4 C5.195625 3.71125 4.39125 3.4225 3.5625 3.125 C1 2 1 2 0 0 Z " fill="#CEC0F6" transform="translate(239,210)"/>
<path d="M0 0 C0.66 0.33 1.32 0.66 2 1 C0.71372289 2.17260611 -0.57919783 3.3379283 -1.875 4.5 C-2.95394531 5.47453125 -2.95394531 5.47453125 -4.0546875 6.46875 C-6 8 -6 8 -8 8 C-8.33 8.99 -8.66 9.98 -9 11 C-9.66 11 -10.32 11 -11 11 C-11 10.01 -11 9.02 -11 8 C-9.1015625 6.46484375 -9.1015625 6.46484375 -6.625 4.9375 C-4.13743776 3.38573499 -2.07727234 2.07727234 0 0 Z " fill="#D3C5F7" transform="translate(384,116)"/>
<path d="M0 0 C3.79039298 1.81938863 7.43082843 3.77768563 11 6 C11.33 6.99 11.66 7.98 12 9 C7.09198451 7.51272258 3.59508707 4.55364515 0 1 C0 0.67 0 0.34 0 0 Z " fill="#C6B7F3" transform="translate(203,182)"/>
<path d="M0 0 C1.98 0.99 1.98 0.99 4 2 C4 2.66 4 3.32 4 4 C4.78375 4.2475 5.5675 4.495 6.375 4.75 C9.32317108 6.15389099 9.9024777 7.00675737 11 10 C9.65686601 9.35330586 8.32608822 8.68096422 7 8 C6.13375 7.566875 5.2675 7.13375 4.375 6.6875 C1.5940664 4.71157349 0.95745218 3.22052097 0 0 Z " fill="#CEBEF8" transform="translate(173,157)"/>
<path d="M0 0 C3.44428265 1.44781793 5.36130962 3.27694609 7.75 6.125 C8.36359375 6.84945312 8.9771875 7.57390625 9.609375 8.3203125 C10.29773438 9.15175781 10.29773438 9.15175781 11 10 C8 10 8 10 6.2109375 8.57421875 C5.60507812 7.95160156 4.99921875 7.32898438 4.375 6.6875 C3.45847656 5.76517578 3.45847656 5.76517578 2.5234375 4.82421875 C1 3 1 3 0 0 Z " fill="#C8B9F7" transform="translate(417,125)"/>
<path d="M0 0 C0.33 0.66 0.66 1.32 1 2 C-0.25942386 3.19959375 -1.53295286 4.38439443 -2.8125 5.5625 C-3.87404297 6.55443359 -3.87404297 6.55443359 -4.95703125 7.56640625 C-5.63121094 8.03949219 -6.30539063 8.51257813 -7 9 C-7.99 8.67 -8.98 8.34 -10 8 C-9.34 8 -8.68 8 -8 8 C-8 7.34 -8 6.68 -8 6 C-6.25 4.4921875 -6.25 4.4921875 -4 2.875 C-3.2575 2.33617187 -2.515 1.79734375 -1.75 1.2421875 C-1.1725 0.83226562 -0.595 0.42234375 0 0 Z " fill="#D3C6F7" transform="translate(45,217)"/>
<path d="M0 0 C4.60139641 1.48868707 7.50227094 3.74629855 11 7 C11 7.66 11 8.32 11 9 C6.56029258 7.60466338 4.09484321 5.43871468 1 2 C0.67 1.34 0.34 0.68 0 0 Z " fill="#B09DF4" transform="translate(197,151)"/>
<path d="M0 0 C0 3 0 3 -1.53125 4.60546875 C-2.1809375 5.12753906 -2.830625 5.64960937 -3.5 6.1875 C-4.1496875 6.71730469 -4.799375 7.24710938 -5.46875 7.79296875 C-5.9740625 8.19128906 -6.479375 8.58960937 -7 9 C-7.66 8.67 -8.32 8.34 -9 8 C-6.03 5.36 -3.06 2.72 0 0 Z " fill="#DED2F9" transform="translate(562,56)"/>
<path d="M0 0 C1.8125 0.1875 1.8125 0.1875 4 1 C5.75 3.5625 5.75 3.5625 7 6 C4.0625 5.25 4.0625 5.25 1 4 C0.125 1.875 0.125 1.875 0 0 Z " fill="#B7A5F5" transform="translate(233,206)"/>
<path d="M0 0 C2.4375 0.8125 2.4375 0.8125 5 2 C5.33 2.99 5.66 3.98 6 5 C8.00016466 6.20882096 8.00016466 6.20882096 10 7 C9.01 7.33 8.02 7.66 7 8 C5.83035398 6.8572081 4.66435444 5.71068285 3.5 4.5625 C2.8503125 3.92441406 2.200625 3.28632813 1.53125 2.62890625 C0 1 0 1 0 0 Z " fill="#D0C2F6" transform="translate(435,142)"/>
<path d="M0 0 C-3.75 3 -3.75 3 -6 3 C-6.66 4.32 -7.32 5.64 -8 7 C-9 5 -9 5 -8.375 3 C-6.28870082 -0.03461699 -3.46707637 -1.73353818 0 0 Z " fill="#DCD1F6" transform="translate(510,128)"/>
<path d="M0 0 C1.31896465 0.92838287 2.62998689 1.86805732 3.9375 2.8125 C4.66839844 3.33457031 5.39929688 3.85664062 6.15234375 4.39453125 C8 6 8 6 9 9 C5.18063472 7.44396229 2.73955562 5.04395069 0 2 C0 1.34 0 0.68 0 0 Z " fill="#D1C3F7" transform="translate(410,93)"/>
<path d="M0 0 C0.99 0 1.98 0 3 0 C3 0.66 3 1.32 3 2 C3.61875 2.309375 4.2375 2.61875 4.875 2.9375 C6.25 3.625 7.625 4.3125 9 5 C9 5.66 9 6.32 9 7 C4.58110387 5.64978174 2.65654657 3.73884332 0 0 Z " fill="#B7A5F5" transform="translate(234,181)"/>
<path d="M0 0 C3.40320742 1.01176437 4.75725331 1.64843582 6.8125 4.625 C7.204375 5.40875 7.59625 6.1925 8 7 C4.63718422 5.55879324 2.4480582 3.71035015 0 1 C0 0.67 0 0.34 0 0 Z " fill="#B7A4F6" transform="translate(208,160)"/>
<path d="M0 0 C0.33 0.99 0.66 1.98 1 3 C-0.32 4.32 -1.64 5.64 -3 7 C-3.99 6.67 -4.98 6.34 -6 6 C-4.02 4.02 -2.04 2.04 0 0 Z " fill="#AA96F2" transform="translate(493,143)"/>
<path d="M0 0 C0.66 0.33 1.32 0.66 2 1 C0.71937515 2.7074998 -0.61767557 4.37373596 -2 6 C-2.66 6 -3.32 6 -4 6 C-4 5.01 -4 4.02 -4 3 C-3.34 3 -2.68 3 -2 3 C-2 2.34 -2 1.68 -2 1 C-1.34 0.67 -0.68 0.34 0 0 Z " fill="#BDADF4" transform="translate(360,111)"/>
</svg>
