<?xml version="1.0" encoding="utf-8" ?>
<svg baseProfile="tiny" height="1754" version="1.2" width="1420" xmlns="http://www.w3.org/2000/svg" xmlns:ev="http://www.w3.org/2001/xml-events" xmlns:xlink="http://www.w3.org/1999/xlink"><defs /><path d="M 287,39 L 286,40 L 274,40 L 273,41 L 272,41 L 271,42 L 264,42 L 263,43 L 262,43 L 261,44 L 256,44 L 255,45 L 254,45 L 253,46 L 249,46 L 248,47 L 247,47 L 246,48 L 243,48 L 242,49 L 241,49 L 240,50 L 237,50 L 236,51 L 234,51 L 232,53 L 230,53 L 229,54 L 228,54 L 227,55 L 225,55 L 223,57 L 221,57 L 219,59 L 218,59 L 216,61 L 215,61 L 213,63 L 211,63 L 206,68 L 204,68 L 197,75 L 196,75 L 190,81 L 189,81 L 189,82 L 183,88 L 183,89 L 178,94 L 178,95 L 177,96 L 177,97 L 174,100 L 174,101 L 172,103 L 172,104 L 170,106 L 170,108 L 169,109 L 168,109 L 168,111 L 166,113 L 166,115 L 164,117 L 164,119 L 163,120 L 163,122 L 162,123 L 162,124 L 161,125 L 161,128 L 160,129 L 160,130 L 159,131 L 159,135 L 158,136 L 158,137 L 157,138 L 157,145 L 156,146 L 156,147 L 155,148 L 155,186 L 156,187 L 156,189 L 157,190 L 157,196 L 158,197 L 158,198 L 159,199 L 159,205 L 160,206 L 160,207 L 161,208 L 161,213 L 162,214 L 162,216 L 163,217 L 163,222 L 164,223 L 164,228 L 165,229 L 165,230 L 166,231 L 166,237 L 167,238 L 167,239 L 168,240 L 168,247 L 170,249 L 170,255 L 172,257 L 172,263 L 173,264 L 173,265 L 174,266 L 174,272 L 175,273 L 175,274 L 176,275 L 176,280 L 177,281 L 177,286 L 178,287 L 178,289 L 179,290 L 179,296 L 180,297 L 180,298 L 181,299 L 181,305 L 183,307 L 183,313 L 185,315 L 185,321 L 186,322 L 186,323 L 187,324 L 187,330 L 188,331 L 188,333 L 189,334 L 189,339 L 190,340 L 190,345 L 191,346 L 191,347 L 192,348 L 192,354 L 193,355 L 193,356 L 194,357 L 194,363 L 196,365 L 196,371 L 197,372 L 197,373 L 198,374 L 198,380 L 199,381 L 199,382 L 200,383 L 200,388 L 201,389 L 201,391 L 202,392 L 202,397 L 203,398 L 203,403 L 204,404 L 204,405 L 205,406 L 205,412 L 206,413 L 206,414 L 207,415 L 207,421 L 208,422 L 208,423 L 209,424 L 209,430 L 211,432 L 211,438 L 212,439 L 212,440 L 213,441 L 213,447 L 214,448 L 214,449 L 215,450 L 215,455 L 216,456 L 216,460 L 217,461 L 216,462 L 217,463 L 217,464 L 218,465 L 218,471 L 219,472 L 219,473 L 220,474 L 220,480 L 221,481 L 221,482 L 222,483 L 222,489 L 224,491 L 224,497 L 225,498 L 225,499 L 226,500 L 226,506 L 227,507 L 227,508 L 228,509 L 228,514 L 229,515 L 229,518 L 230,519 L 230,523 L 231,524 L 231,530 L 232,531 L 232,532 L 233,533 L 233,539 L 235,541 L 235,548 L 237,550 L 237,556 L 238,557 L 238,558 L 239,559 L 239,565 L 240,566 L 240,567 L 241,568 L 241,574 L 242,575 L 242,577 L 243,578 L 243,582 L 244,583 L 244,589 L 246,591 L 246,598 L 248,600 L 248,607 L 250,609 L 250,615 L 251,616 L 251,617 L 252,618 L 252,624 L 253,625 L 253,626 L 254,627 L 254,632 L 255,633 L 255,635 L 256,636 L 256,641 L 257,642 L 257,648 L 259,650 L 259,656 L 261,658 L 261,665 L 263,667 L 263,673 L 265,675 L 265,682 L 266,683 L 266,684 L 267,685 L 267,690 L 268,691 L 268,693 L 269,694 L 269,699 L 270,700 L 270,705 L 271,706 L 271,707 L 272,708 L 272,714 L 273,715 L 273,716 L 274,717 L 274,723 L 276,725 L 276,731 L 277,732 L 277,733 L 278,734 L 278,740 L 280,742 L 280,748 L 281,749 L 281,751 L 282,752 L 282,756 L 283,757 L 283,763 L 284,764 L 284,765 L 285,766 L 285,772 L 286,773 L 286,774 L 287,775 L 287,780 L 288,781 L 288,782 L 289,783 L 289,789 L 290,790 L 290,791 L 291,792 L 291,798 L 292,799 L 292,800 L 293,801 L 293,806 L 294,807 L 294,809 L 295,810 L 295,815 L 296,816 L 296,821 L 297,822 L 297,824 L 298,825 L 298,830 L 299,831 L 299,832 L 300,833 L 300,839 L 301,840 L 301,841 L 302,842 L 302,847 L 303,848 L 303,849 L 304,850 L 304,856 L 305,857 L 305,858 L 306,859 L 306,865 L 307,866 L 307,867 L 308,868 L 308,873 L 309,874 L 309,879 L 310,880 L 310,881 L 311,882 L 311,888 L 312,889 L 312,890 L 313,891 L 313,898 L 315,900 L 315,907 L 317,909 L 317,915 L 318,916 L 318,917 L 319,918 L 319,923 L 320,924 L 320,925 L 321,926 L 321,932 L 322,933 L 322,938 L 323,939 L 323,940 L 324,941 L 324,947 L 325,948 L 325,949 L 326,950 L 326,956 L 328,958 L 328,965 L 330,967 L 330,973 L 331,974 L 331,975 L 332,976 L 332,982 L 333,983 L 333,984 L 334,985 L 334,990 L 335,991 L 335,996 L 336,997 L 336,999 L 337,1000 L 337,1005 L 338,1006 L 338,1007 L 339,1008 L 339,1014 L 340,1015 L 340,1016 L 341,1017 L 341,1023 L 343,1025 L 343,1032 L 345,1034 L 345,1040 L 346,1041 L 346,1042 L 347,1043 L 347,1047 L 348,1048 L 348,1050 L 349,1051 L 349,1052 L 350,1053 L 350,1056 L 352,1058 L 352,1060 L 354,1062 L 354,1065 L 356,1067 L 356,1069 L 358,1071 L 358,1073 L 360,1075 L 360,1077 L 361,1078 L 361,1079 L 363,1081 L 363,1083 L 365,1085 L 365,1086 L 366,1087 L 366,1088 L 369,1091 L 369,1093 L 373,1097 L 373,1098 L 374,1099 L 374,1100 L 380,1106 L 380,1107 L 384,1111 L 384,1112 L 385,1112 L 386,1113 L 386,1114 L 387,1114 L 392,1119 L 393,1119 L 399,1125 L 400,1125 L 401,1126 L 401,1127 L 403,1127 L 407,1131 L 408,1131 L 409,1132 L 410,1132 L 412,1134 L 413,1134 L 415,1136 L 416,1136 L 418,1138 L 420,1138 L 422,1140 L 423,1140 L 425,1142 L 427,1142 L 429,1144 L 431,1144 L 432,1145 L 434,1145 L 436,1147 L 438,1147 L 440,1149 L 443,1149 L 445,1151 L 449,1151 L 451,1153 L 455,1153 L 457,1155 L 463,1155 L 464,1156 L 465,1156 L 466,1157 L 473,1157 L 474,1158 L 711,1158 L 713,1160 L 713,1206 L 711,1208 L 709,1208 L 707,1210 L 705,1210 L 704,1211 L 703,1211 L 702,1212 L 700,1212 L 698,1214 L 696,1214 L 695,1215 L 694,1215 L 692,1217 L 690,1217 L 688,1219 L 687,1219 L 685,1221 L 683,1221 L 681,1223 L 680,1223 L 678,1225 L 677,1225 L 676,1226 L 674,1226 L 673,1225 L 671,1225 L 669,1223 L 666,1223 L 664,1221 L 661,1221 L 659,1219 L 657,1219 L 656,1218 L 655,1218 L 654,1217 L 652,1217 L 650,1215 L 647,1215 L 646,1214 L 644,1214 L 643,1213 L 642,1213 L 641,1212 L 639,1212 L 637,1210 L 634,1210 L 632,1208 L 624,1208 L 624,1209 L 623,1210 L 622,1210 L 622,1211 L 620,1213 L 620,1214 L 617,1217 L 617,1218 L 615,1220 L 615,1221 L 611,1225 L 611,1226 L 609,1228 L 609,1229 L 608,1230 L 607,1230 L 607,1231 L 605,1233 L 605,1234 L 601,1238 L 601,1239 L 598,1242 L 598,1243 L 594,1247 L 594,1248 L 593,1249 L 592,1249 L 592,1250 L 591,1251 L 591,1252 L 585,1258 L 585,1259 L 583,1261 L 583,1262 L 579,1266 L 579,1267 L 577,1269 L 577,1270 L 573,1274 L 573,1279 L 574,1280 L 574,1281 L 585,1292 L 586,1292 L 590,1296 L 591,1296 L 592,1297 L 592,1298 L 593,1298 L 598,1303 L 599,1303 L 603,1307 L 604,1307 L 605,1308 L 605,1309 L 606,1309 L 607,1310 L 607,1311 L 608,1311 L 611,1314 L 612,1314 L 620,1322 L 620,1327 L 619,1328 L 619,1331 L 618,1332 L 618,1358 L 619,1359 L 619,1361 L 620,1362 L 620,1374 L 617,1377 L 616,1377 L 614,1379 L 613,1379 L 605,1387 L 604,1387 L 601,1390 L 600,1390 L 594,1396 L 593,1396 L 591,1398 L 590,1398 L 581,1407 L 580,1407 L 578,1409 L 577,1409 L 577,1410 L 576,1411 L 575,1411 L 575,1412 L 574,1413 L 574,1414 L 573,1415 L 573,1418 L 574,1419 L 574,1420 L 575,1421 L 575,1422 L 579,1426 L 579,1427 L 581,1429 L 581,1430 L 582,1430 L 583,1431 L 583,1432 L 586,1435 L 586,1436 L 588,1438 L 588,1439 L 589,1439 L 590,1440 L 590,1441 L 592,1443 L 592,1444 L 596,1448 L 596,1449 L 598,1451 L 598,1452 L 603,1457 L 603,1458 L 605,1460 L 605,1461 L 609,1465 L 609,1466 L 610,1467 L 610,1468 L 614,1472 L 614,1473 L 616,1475 L 616,1476 L 618,1478 L 618,1479 L 620,1481 L 620,1482 L 621,1482 L 622,1483 L 622,1484 L 631,1484 L 633,1482 L 637,1482 L 639,1480 L 642,1480 L 644,1478 L 647,1478 L 649,1476 L 652,1476 L 653,1475 L 654,1475 L 655,1474 L 658,1474 L 659,1473 L 661,1473 L 662,1472 L 663,1472 L 664,1471 L 667,1471 L 669,1469 L 672,1469 L 674,1467 L 677,1467 L 678,1466 L 679,1467 L 680,1467 L 682,1469 L 684,1469 L 685,1470 L 685,1471 L 686,1471 L 687,1472 L 688,1472 L 689,1473 L 690,1473 L 691,1474 L 692,1474 L 694,1476 L 696,1476 L 698,1478 L 700,1478 L 702,1480 L 704,1480 L 706,1482 L 708,1482 L 710,1484 L 713,1484 L 715,1486 L 716,1486 L 718,1488 L 718,1594 L 715,1597 L 708,1597 L 707,1598 L 696,1598 L 695,1599 L 693,1599 L 692,1600 L 680,1600 L 679,1601 L 677,1601 L 676,1602 L 665,1602 L 664,1603 L 662,1603 L 661,1604 L 649,1604 L 648,1605 L 647,1605 L 646,1606 L 634,1606 L 633,1607 L 630,1607 L 629,1608 L 618,1608 L 617,1609 L 614,1609 L 613,1610 L 603,1610 L 602,1611 L 589,1611 L 588,1612 L 586,1612 L 585,1613 L 574,1613 L 573,1614 L 571,1614 L 570,1615 L 557,1615 L 556,1616 L 555,1616 L 554,1617 L 542,1617 L 541,1618 L 539,1618 L 538,1619 L 524,1619 L 523,1620 L 519,1620 L 518,1621 L 503,1621 L 502,1622 L 499,1622 L 498,1623 L 491,1623 L 490,1624 L 488,1624 L 487,1625 L 486,1625 L 485,1626 L 483,1626 L 481,1628 L 479,1628 L 475,1632 L 474,1632 L 472,1634 L 471,1634 L 471,1635 L 468,1638 L 468,1639 L 465,1642 L 465,1643 L 464,1644 L 464,1645 L 462,1647 L 462,1650 L 460,1652 L 460,1657 L 459,1658 L 459,1659 L 458,1660 L 458,1680 L 753,1680 L 754,1679 L 763,1679 L 764,1680 L 1066,1680 L 1067,1679 L 1067,1657 L 1065,1655 L 1065,1652 L 1064,1651 L 1064,1650 L 1063,1649 L 1063,1647 L 1061,1645 L 1061,1643 L 1058,1640 L 1058,1639 L 1056,1637 L 1056,1636 L 1054,1634 L 1053,1634 L 1052,1633 L 1052,1632 L 1050,1632 L 1046,1628 L 1044,1628 L 1042,1626 L 1040,1626 L 1038,1624 L 1035,1624 L 1034,1623 L 1026,1623 L 1025,1622 L 1022,1622 L 1021,1621 L 1005,1621 L 1004,1620 L 1002,1620 L 1001,1619 L 987,1619 L 986,1618 L 983,1618 L 982,1617 L 970,1617 L 969,1616 L 967,1616 L 966,1615 L 954,1615 L 953,1614 L 952,1614 L 951,1613 L 937,1613 L 936,1612 L 933,1612 L 932,1611 L 919,1611 L 918,1610 L 909,1610 L 908,1609 L 904,1609 L 903,1608 L 891,1608 L 890,1607 L 888,1607 L 887,1606 L 875,1606 L 874,1605 L 873,1605 L 872,1604 L 859,1604 L 858,1603 L 856,1603 L 855,1602 L 844,1602 L 843,1601 L 841,1601 L 840,1600 L 828,1600 L 827,1599 L 825,1599 L 824,1598 L 813,1598 L 810,1595 L 810,1487 L 811,1486 L 812,1486 L 814,1484 L 817,1484 L 819,1482 L 821,1482 L 823,1480 L 825,1480 L 827,1478 L 829,1478 L 831,1476 L 833,1476 L 834,1475 L 835,1475 L 837,1473 L 838,1473 L 839,1472 L 840,1472 L 843,1469 L 845,1469 L 849,1465 L 853,1465 L 855,1467 L 857,1467 L 858,1468 L 859,1468 L 860,1469 L 862,1469 L 864,1471 L 867,1471 L 869,1473 L 872,1473 L 874,1475 L 876,1475 L 877,1476 L 880,1476 L 882,1478 L 885,1478 L 887,1480 L 890,1480 L 891,1481 L 891,1482 L 895,1482 L 897,1484 L 905,1484 L 905,1483 L 906,1482 L 907,1482 L 907,1481 L 909,1479 L 909,1478 L 912,1475 L 912,1474 L 914,1472 L 914,1471 L 918,1467 L 918,1466 L 920,1464 L 920,1463 L 924,1459 L 924,1458 L 925,1457 L 925,1456 L 929,1452 L 929,1451 L 931,1449 L 931,1448 L 935,1444 L 935,1443 L 937,1441 L 937,1440 L 941,1436 L 941,1435 L 942,1434 L 942,1433 L 943,1432 L 944,1432 L 944,1431 L 946,1429 L 946,1428 L 950,1424 L 950,1423 L 951,1422 L 951,1421 L 953,1419 L 953,1414 L 946,1407 L 945,1407 L 944,1406 L 944,1405 L 943,1405 L 941,1403 L 940,1403 L 931,1394 L 930,1394 L 926,1390 L 925,1390 L 914,1379 L 913,1379 L 909,1375 L 908,1375 L 907,1374 L 907,1356 L 908,1355 L 908,1349 L 909,1348 L 909,1338 L 908,1337 L 908,1334 L 907,1333 L 907,1321 L 908,1320 L 909,1320 L 916,1313 L 917,1313 L 925,1305 L 926,1305 L 926,1304 L 927,1303 L 928,1303 L 935,1296 L 936,1296 L 942,1290 L 943,1290 L 946,1287 L 947,1287 L 953,1281 L 953,1280 L 954,1279 L 954,1276 L 953,1275 L 953,1273 L 950,1270 L 950,1269 L 948,1267 L 948,1266 L 942,1260 L 942,1259 L 941,1258 L 941,1257 L 937,1253 L 937,1252 L 935,1250 L 935,1249 L 934,1249 L 933,1248 L 933,1247 L 930,1244 L 930,1243 L 927,1240 L 927,1239 L 925,1237 L 925,1236 L 922,1233 L 922,1232 L 920,1230 L 920,1229 L 916,1225 L 916,1224 L 915,1223 L 915,1222 L 911,1218 L 911,1216 L 907,1212 L 907,1210 L 906,1210 L 904,1208 L 898,1208 L 896,1210 L 893,1210 L 891,1212 L 888,1212 L 887,1213 L 886,1213 L 885,1214 L 882,1214 L 881,1215 L 879,1215 L 878,1216 L 877,1216 L 876,1217 L 873,1217 L 871,1219 L 868,1219 L 866,1221 L 862,1221 L 860,1223 L 857,1223 L 856,1224 L 855,1224 L 854,1225 L 852,1225 L 851,1226 L 850,1226 L 849,1225 L 848,1225 L 846,1223 L 844,1223 L 842,1221 L 841,1221 L 839,1219 L 838,1219 L 836,1217 L 834,1217 L 832,1215 L 830,1215 L 828,1213 L 827,1213 L 826,1212 L 824,1212 L 822,1210 L 820,1210 L 818,1208 L 816,1208 L 814,1206 L 814,1160 L 815,1159 L 816,1159 L 817,1158 L 1171,1158 L 1172,1159 L 1173,1158 L 1202,1158 L 1203,1157 L 1208,1157 L 1209,1156 L 1210,1156 L 1211,1155 L 1215,1155 L 1217,1153 L 1221,1153 L 1223,1151 L 1226,1151 L 1228,1149 L 1230,1149 L 1232,1147 L 1234,1147 L 1236,1145 L 1238,1145 L 1240,1143 L 1241,1143 L 1242,1142 L 1243,1142 L 1245,1140 L 1247,1140 L 1247,1139 L 1248,1138 L 1249,1138 L 1251,1136 L 1252,1136 L 1254,1134 L 1255,1134 L 1255,1133 L 1256,1132 L 1257,1132 L 1260,1129 L 1261,1129 L 1269,1121 L 1269,1120 L 1273,1116 L 1273,1115 L 1274,1114 L 1275,1114 L 1275,1113 L 1277,1111 L 1277,1110 L 1279,1108 L 1279,1107 L 1281,1105 L 1281,1104 L 1283,1102 L 1283,1100 L 1285,1098 L 1285,1097 L 1286,1096 L 1286,1094 L 1288,1092 L 1288,1089 L 1289,1088 L 1290,1088 L 1290,1085 L 1291,1084 L 1291,1083 L 1292,1082 L 1292,1079 L 1294,1077 L 1294,1072 L 1295,1071 L 1295,1069 L 1296,1068 L 1296,1062 L 1297,1061 L 1297,1032 L 1296,1031 L 1296,1023 L 1295,1022 L 1295,1021 L 1294,1020 L 1294,1015 L 1292,1013 L 1292,1010 L 1290,1008 L 1290,1005 L 1288,1003 L 1288,1001 L 1286,999 L 1286,998 L 1285,997 L 1285,996 L 1284,995 L 1284,994 L 1283,993 L 1283,992 L 1282,991 L 1282,990 L 1279,987 L 1279,985 L 1278,985 L 1277,984 L 1277,983 L 1275,981 L 1275,980 L 1268,973 L 1268,972 L 1267,972 L 1266,971 L 1266,970 L 1265,970 L 1264,969 L 1264,968 L 1263,968 L 1262,967 L 1262,966 L 1261,966 L 1257,962 L 1256,962 L 1253,959 L 1252,959 L 1251,958 L 1251,957 L 1249,957 L 1247,955 L 1246,955 L 1244,953 L 1243,953 L 1241,951 L 1239,951 L 1237,949 L 1235,949 L 1234,948 L 1232,948 L 1230,946 L 1227,946 L 1225,944 L 1222,944 L 1220,942 L 1215,942 L 1213,940 L 1207,940 L 1206,939 L 1205,939 L 1204,938 L 1195,938 L 1194,937 L 489,937 L 488,936 L 486,936 L 480,930 L 480,929 L 479,928 L 479,920 L 480,919 L 480,918 L 481,917 L 481,916 L 482,915 L 483,915 L 483,914 L 484,913 L 485,913 L 487,911 L 488,911 L 490,909 L 492,909 L 494,907 L 495,907 L 496,906 L 497,906 L 499,904 L 500,904 L 502,902 L 503,902 L 505,900 L 506,900 L 508,898 L 509,898 L 513,894 L 514,894 L 517,891 L 518,891 L 524,885 L 525,885 L 535,875 L 535,874 L 543,866 L 543,864 L 546,861 L 546,860 L 548,858 L 548,857 L 550,855 L 550,854 L 552,852 L 552,851 L 554,849 L 554,847 L 556,845 L 556,844 L 557,843 L 557,841 L 559,839 L 559,837 L 561,835 L 561,832 L 563,830 L 563,827 L 565,825 L 565,821 L 567,819 L 567,814 L 568,813 L 568,811 L 569,810 L 569,805 L 570,804 L 570,794 L 571,793 L 571,772 L 570,771 L 570,760 L 569,759 L 569,753 L 568,752 L 568,748 L 567,747 L 567,740 L 565,738 L 565,731 L 563,729 L 563,722 L 561,720 L 561,714 L 560,713 L 560,712 L 559,711 L 559,705 L 558,704 L 558,703 L 557,702 L 557,697 L 556,696 L 556,692 L 555,691 L 555,688 L 554,687 L 554,682 L 553,681 L 553,680 L 552,679 L 552,673 L 550,671 L 550,664 L 548,662 L 548,656 L 547,655 L 547,654 L 546,653 L 546,647 L 545,646 L 545,645 L 544,644 L 544,639 L 543,638 L 543,635 L 542,634 L 542,630 L 541,629 L 541,624 L 540,623 L 540,622 L 539,621 L 539,615 L 538,614 L 538,613 L 537,612 L 537,606 L 536,605 L 536,604 L 535,603 L 535,598 L 534,597 L 534,596 L 533,595 L 533,589 L 532,588 L 532,587 L 531,586 L 531,580 L 530,579 L 530,577 L 529,576 L 529,572 L 528,571 L 528,566 L 527,565 L 527,563 L 526,562 L 526,556 L 525,555 L 525,554 L 524,553 L 524,547 L 522,545 L 522,539 L 521,538 L 521,537 L 520,536 L 520,530 L 519,529 L 519,528 L 518,527 L 518,522 L 517,521 L 517,519 L 516,518 L 516,513 L 515,512 L 515,507 L 514,506 L 514,505 L 513,504 L 513,497 L 511,495 L 511,489 L 510,488 L 510,487 L 509,486 L 509,481 L 508,480 L 508,479 L 507,478 L 507,472 L 506,471 L 506,470 L 505,469 L 505,463 L 504,462 L 504,460 L 503,459 L 503,455 L 502,454 L 502,449 L 501,448 L 501,447 L 500,446 L 500,440 L 499,439 L 499,438 L 498,437 L 498,431 L 496,429 L 496,422 L 495,421 L 495,420 L 494,419 L 494,414 L 493,413 L 493,412 L 492,411 L 492,405 L 491,404 L 491,403 L 490,402 L 490,397 L 489,396 L 489,391 L 488,390 L 488,388 L 487,387 L 487,381 L 485,379 L 485,373 L 484,372 L 484,371 L 483,370 L 483,364 L 482,363 L 482,362 L 481,361 L 481,355 L 480,354 L 480,353 L 479,352 L 479,347 L 478,346 L 478,344 L 477,343 L 477,338 L 476,337 L 476,332 L 475,331 L 475,329 L 474,328 L 474,323 L 473,322 L 473,321 L 472,320 L 472,314 L 471,313 L 471,312 L 470,311 L 470,306 L 469,305 L 469,304 L 468,303 L 468,297 L 467,296 L 467,295 L 466,294 L 466,289 L 465,288 L 465,286 L 464,285 L 464,280 L 463,279 L 463,275 L 462,274 L 462,272 L 461,271 L 461,265 L 460,264 L 460,263 L 459,262 L 459,256 L 457,254 L 457,248 L 456,247 L 456,246 L 455,245 L 455,239 L 453,237 L 453,230 L 451,228 L 451,222 L 450,221 L 450,216 L 449,215 L 449,214 L 448,213 L 448,208 L 447,207 L 447,206 L 446,205 L 446,199 L 445,198 L 445,197 L 444,196 L 444,190 L 442,188 L 442,182 L 441,181 L 441,180 L 440,179 L 440,173 L 439,172 L 439,171 L 438,170 L 438,165 L 437,164 L 437,160 L 436,159 L 436,157 L 435,156 L 435,150 L 434,149 L 434,148 L 433,147 L 433,141 L 431,139 L 431,135 L 429,133 L 429,130 L 427,128 L 427,126 L 425,124 L 425,122 L 424,121 L 424,119 L 422,117 L 422,115 L 420,113 L 420,111 L 419,111 L 418,110 L 418,108 L 416,106 L 416,105 L 414,103 L 414,102 L 411,99 L 411,98 L 409,96 L 409,95 L 403,89 L 403,88 L 401,86 L 401,85 L 400,85 L 399,84 L 399,83 L 392,76 L 391,76 L 389,74 L 388,74 L 382,68 L 381,68 L 379,66 L 378,66 L 375,63 L 374,63 L 372,61 L 371,61 L 370,60 L 369,60 L 368,59 L 367,59 L 365,57 L 364,57 L 362,55 L 360,55 L 358,53 L 356,53 L 354,51 L 351,51 L 350,50 L 348,50 L 347,49 L 346,49 L 345,48 L 342,48 L 340,46 L 335,46 L 333,44 L 328,44 L 327,43 L 326,43 L 325,42 L 318,42 L 317,41 L 316,41 L 315,40 L 302,40 L 301,39 Z" fill="white" /></svg>